<svg xmlns="http://www.w3.org/2000/svg" xmlns:xlink="http://www.w3.org/1999/xlink" width="1000" zoomAndPan="magnify" viewBox="0 0 750 225" height="300" preserveAspectRatio="xMidYMid meet" version="1.0"><defs><g/><clipPath id="bf3266207b"><path d="M 22.5 23.308594 L 143.847656 23.308594 L 143.847656 203.050781 L 22.5 203.050781 Z M 22.5 23.308594 " clip-rule="nonzero"/></clipPath></defs><g clip-path="url(#bf3266207b)"><path fill="#947f57" d="M 140.039062 193.191406 C 145.1875 113.359375 119.507812 98.859375 92.359375 83.53125 C 88.039062 81.097656 83.695312 78.644531 79.410156 75.917969 C 85.332031 79.296875 91.324219 82.007812 97.109375 84.621094 C 126.617188 97.988281 152.144531 109.519531 140.039062 193.191406 Z M 139.226562 193.972656 C 137.546875 117.96875 113.257812 101.050781 87.570312 83.144531 C 82.90625 79.898438 78.195312 76.613281 73.589844 72.929688 C 79.59375 77.207031 85.816406 80.722656 91.96875 84.199219 C 105.851562 92.015625 118.917969 99.410156 127.957031 114.933594 C 138.09375 132.320312 141.671875 157.445312 139.226562 193.972656 Z M 83.1875 82.976562 C 77.878906 78.441406 72.667969 73.980469 67.691406 68.980469 C 73.988281 74.65625 80.589844 79.253906 87.109375 83.789062 C 112.722656 101.625 136.859375 118.464844 138.445312 194.496094 C 129.820312 122.902344 106.132812 102.609375 83.1875 82.976562 Z M 79.417969 83.476562 C 74.003906 77.792969 68.699219 72.230469 63.675781 66.023438 C 69.667969 72.535156 76.074219 78.015625 82.632812 83.625 C 105.515625 103.183594 129.171875 123.449219 137.691406 195.234375 C 122.332031 128.558594 99.527344 104.597656 79.417969 83.476562 Z M 76.960938 86.007812 C 70.707031 77.941406 64.839844 70.371094 59.429688 62.023438 C 65.484375 70.15625 72.03125 77.03125 78.757812 84.085938 C 98.804688 105.148438 121.535156 129.019531 136.859375 195.589844 C 115.492188 135.675781 95.007812 109.28125 76.960938 86.007812 Z M 79.824219 98.039062 C 70.636719 83.726562 62.933594 71.683594 56.113281 58.511719 C 62.226562 68.527344 68.953125 77.226562 76.203125 86.582031 C 94.25 109.84375 114.707031 136.195312 136.042969 196.101562 C 112.394531 148.949219 94.328125 120.722656 79.824219 98.039062 Z M 53.472656 55.488281 C 60.734375 70.078125 68.984375 82.96875 78.957031 98.558594 C 93.484375 121.253906 111.566406 149.464844 135.199219 196.628906 C 87.695312 125.578125 68.289062 91.769531 53.472656 55.488281 Z M 50.8125 51.625 C 65.875 89.578125 84.875 123.199219 134.125 196.84375 C 75.820312 129.4375 61.921875 87.882812 50.8125 51.625 Z M 49.84375 53.476562 C 49.519531 51.941406 49.199219 50.417969 48.871094 48.914062 C 60.144531 85.925781 73.207031 127.945312 133.003906 197.167969 C 67.679688 137.589844 57.78125 90.972656 49.84375 53.476562 Z M 47.996094 53.402344 C 47.691406 50.851562 47.394531 48.394531 47.09375 46.011719 C 47.644531 48.53125 48.183594 51.097656 48.738281 53.699219 C 56.296875 89.265625 66.597656 137.855469 131.664062 197.433594 C 58.75 144.277344 52.265625 89.664062 47.996094 53.402344 Z M 45.816406 51.410156 C 45.738281 48.523438 45.664062 45.792969 45.5625 43.21875 C 46.011719 46.488281 46.421875 49.921875 46.847656 53.53125 C 51.136719 89.816406 57.609375 144.367188 129.882812 197.558594 C 48.667969 149.800781 46.894531 88.300781 45.816406 51.410156 Z M 43.820312 48.265625 C 43.976562 45.527344 44.125 42.945312 44.230469 40.523438 C 44.410156 43.871094 44.523438 47.503906 44.632812 51.441406 C 45.683594 88.382812 47.457031 149.792969 127.882812 197.785156 C 37.671875 154.808594 41.671875 85.675781 43.820312 48.265625 Z M 42.226562 44.160156 C 42.53125 42.058594 42.808594 40.085938 43.054688 38.246094 C 42.953125 41.261719 42.761719 44.59375 42.5625 48.191406 C 40.410156 85.652344 36.441406 154.753906 125.742188 198.128906 C 25.722656 159.585938 36.835938 81.878906 42.226562 44.160156 Z M 41.265625 39.078125 C 41.558594 37.835938 41.828125 36.664062 42.082031 35.558594 C 41.773438 38.101562 41.371094 40.9375 40.933594 43.992188 C 35.546875 81.742188 24.480469 159.285156 123.070312 198.472656 C 12.445312 164.039062 32.5625 76.796875 41.265625 39.078125 Z M 41.691406 147.523438 C 17.574219 105.816406 34.515625 53.554688 41.21875 33.261719 C 40.851562 34.953125 40.429688 36.804688 39.976562 38.78125 C 35.558594 57.839844 28.179688 89.78125 36.777344 121.777344 C 46.546875 158.207031 74.582031 184.132812 120.191406 198.964844 C 82.316406 189.453125 55.929688 172.160156 41.691406 147.523438 Z M 33.464844 146.101562 C 12.144531 103.753906 32.007812 50.21875 40.46875 31.128906 C 40.339844 31.515625 40.214844 31.902344 40.085938 32.292969 C 33.464844 52.351562 15.867188 105.601562 40.492188 148.226562 C 54.523438 172.519531 80.140625 189.742188 116.742188 199.515625 C 75.105469 191.136719 47.113281 173.214844 33.464844 146.101562 Z M 97.40625 83.972656 C 85.101562 78.410156 71.808594 72.390625 60.382812 60.394531 C 60.007812 59.984375 59.632812 59.574219 59.257812 59.152344 C 57.3125 56.84375 55.421875 54.367188 53.597656 51.675781 C 53.257812 51.144531 52.910156 50.609375 52.574219 50.0625 C 51.640625 48.480469 50.730469 46.84375 49.84375 45.148438 C 49.296875 44.042969 48.765625 42.90625 48.234375 41.753906 C 47.804688 40.742188 47.382812 39.699219 46.960938 38.660156 C 46.65625 37.824219 46.347656 36.980469 46.039062 36.144531 C 45.824219 35.460938 45.601562 34.777344 45.382812 34.101562 C 45.175781 33.335938 44.972656 32.574219 44.761719 31.824219 C 44.65625 31.351562 44.542969 30.878906 44.429688 30.414062 C 44.332031 29.839844 44.222656 29.292969 44.109375 28.746094 C 44.050781 28.210938 43.972656 27.703125 43.890625 27.207031 C 43.867188 26.742188 43.820312 26.308594 43.769531 25.898438 C 43.777344 25.535156 43.773438 25.191406 43.742188 24.890625 C 43.796875 24.558594 43.820312 24.285156 43.808594 24.066406 C 43.832031 24.015625 43.851562 23.988281 43.855469 23.972656 L 43.796875 23.945312 C 43.789062 23.847656 43.769531 23.757812 43.742188 23.679688 L 43.476562 23.769531 L 42.617188 23.308594 C 42.5625 23.402344 41.84375 24.78125 40.699219 27.207031 L 40.695312 27.210938 C 40.695312 27.214844 40.695312 27.214844 40.695312 27.214844 C 40.65625 27.296875 40.625 27.371094 40.585938 27.453125 L 40.550781 27.46875 C 40.550781 27.484375 40.554688 27.492188 40.558594 27.507812 C 40.535156 27.558594 40.511719 27.617188 40.488281 27.664062 L 40.417969 27.695312 C 40.429688 27.714844 40.433594 27.738281 40.441406 27.761719 C 32.886719 44.015625 9.433594 101.59375 32.191406 146.75 C 47.347656 176.855469 79.84375 195.804688 128.734375 203.050781 L 128.832031 202.386719 C 129.03125 202.425781 129.21875 202.472656 129.421875 202.511719 L 129.566406 201.785156 C 129.746094 201.835938 129.921875 201.890625 130.101562 201.9375 L 130.289062 201.210938 C 130.453125 201.265625 130.605469 201.328125 130.765625 201.386719 L 131.042969 200.632812 C 131.175781 200.691406 131.300781 200.753906 131.433594 200.8125 L 131.789062 200.066406 C 131.898438 200.128906 132.003906 200.191406 132.117188 200.261719 L 132.546875 199.496094 C 132.628906 199.558594 132.714844 199.621094 132.800781 199.683594 L 133.320312 198.945312 C 133.378906 198.992188 133.429688 199.046875 133.488281 199.09375 L 134.089844 198.433594 C 134.109375 198.457031 134.128906 198.476562 134.148438 198.5 L 134.847656 197.921875 C 134.847656 197.921875 134.851562 197.925781 134.851562 197.929688 L 135.6875 197.355469 C 135.671875 197.335938 135.65625 197.316406 135.640625 197.296875 L 136.441406 196.898438 C 136.410156 196.832031 136.382812 196.78125 136.355469 196.722656 L 137.164062 196.433594 C 137.128906 196.339844 137.09375 196.253906 137.066406 196.160156 L 137.863281 195.96875 C 137.835938 195.84375 137.804688 195.722656 137.777344 195.59375 L 138.566406 195.507812 C 138.546875 195.347656 138.527344 195.191406 138.507812 195.023438 L 139.25 195.007812 C 139.25 194.828125 139.246094 194.652344 139.238281 194.476562 L 139.957031 194.527344 C 139.964844 194.328125 139.980469 194.132812 139.992188 193.925781 L 140.640625 194.03125 C 153.097656 109.152344 127.273438 97.484375 97.40625 83.972656 " fill-opacity="1" fill-rule="nonzero"/></g><g fill="#3d3d3d" fill-opacity="1"><g transform="translate(179.330793, 200.737166)"><g><path d="M 28.261719 -1.171875 L 28.261719 -40.679688 L 55.621094 -40.679688 L 55.621094 -41.851562 L 28.261719 -41.851562 L 28.261719 -80.191406 L 59.039062 -80.191406 L 59.039062 -81.359375 L 7.289062 -81.359375 L 7.289062 -20.878906 C 7.289062 -9.359375 16.648438 0 28.261719 0 L 59.039062 0 L 59.039062 -1.171875 Z M 28.261719 -1.171875 "/></g></g></g><g fill="#3d3d3d" fill-opacity="1"><g transform="translate(236.93073, 200.737166)"><g><path d="M 46.621094 0.179688 C 61.019531 0.179688 70.199219 -10.800781 70.199219 -30.328125 C 70.199219 -49.320312 61.109375 -60.300781 46.800781 -60.300781 C 36.179688 -60.300781 28.710938 -53.640625 25.921875 -41.578125 C 25.921875 -51.300781 18.089844 -59.128906 8.371094 -59.128906 L 6.121094 -59.128906 L 6.121094 0.0898438 C 6.121094 9.71875 14.039062 17.640625 23.671875 17.640625 L 25.921875 17.640625 L 25.921875 -18.808594 C 28.710938 -6.480469 36 0.179688 46.621094 0.179688 Z M 25.921875 -30.328125 C 25.921875 -45.539062 32.039062 -55.621094 38.25 -55.621094 C 44.820312 -55.621094 49.320312 -45.539062 49.320312 -30.328125 C 49.320312 -14.851562 44.820312 -4.5 38.25 -4.5 C 32.039062 -4.5 25.921875 -14.851562 25.921875 -30.328125 Z M 25.921875 -30.328125 "/></g></g></g><g fill="#3d3d3d" fill-opacity="1"><g transform="translate(304.790661, 200.737166)"><g><path d="M 45.539062 -59.308594 C 34.019531 -59.308594 28.261719 -52.109375 25.921875 -41.398438 L 25.921875 -61.648438 C 25.921875 -72.539062 17.101562 -81.359375 6.121094 -81.359375 L 6.121094 -19.800781 C 6.121094 -8.820312 15.03125 0 25.921875 0 L 25.921875 -32.941406 C 26.640625 -44.550781 30.691406 -53.820312 37.980469 -53.820312 C 42.660156 -53.820312 44.820312 -50.578125 44.820312 -43.738281 L 44.820312 -19.800781 C 44.820312 -8.910156 53.730469 0 64.621094 0 L 64.621094 -38.699219 C 64.621094 -51.121094 57.871094 -59.308594 45.539062 -59.308594 Z M 45.539062 -59.308594 "/></g></g></g><g fill="#3d3d3d" fill-opacity="1"><g transform="translate(369.410581, 200.737166)"><g><path d="M 47.339844 -58.140625 L 47.339844 -59.308594 C 34.289062 -59.308594 28.261719 -51.480469 25.921875 -40.679688 C 25.921875 -50.308594 18.089844 -58.140625 8.460938 -58.140625 L 6.121094 -58.140625 L 6.121094 -17.460938 C 6.121094 -7.828125 13.949219 0 23.578125 0 L 25.921875 0 L 25.921875 -27.988281 C 25.921875 -44.28125 30.421875 -58.140625 47.339844 -58.140625 Z M 47.339844 -58.140625 "/></g></g></g><g fill="#3d3d3d" fill-opacity="1"><g transform="translate(411.890545, 200.737166)"><g><path d="M 65.25 -30.511719 C 65.25 -48.511719 49.140625 -60.480469 34.199219 -60.480469 C 19.351562 -60.480469 3.148438 -48.511719 3.148438 -30.511719 C 3.148438 -12.238281 19.351562 0 34.199219 0 C 49.140625 0 65.25 -12.238281 65.25 -30.511719 Z M 24.121094 -30.511719 C 24.121094 -50.128906 27 -59.308594 34.199219 -59.308594 C 41.398438 -59.308594 44.371094 -50.128906 44.371094 -30.511719 C 44.371094 -10.621094 41.398438 -1.171875 34.199219 -1.171875 C 27 -1.171875 24.121094 -10.621094 24.121094 -30.511719 Z M 24.121094 -30.511719 "/></g></g></g><g fill="#3d3d3d" fill-opacity="1"><g transform="translate(474.710481, 200.737166)"><g><path d="M 37.980469 -53.820312 C 42.660156 -53.820312 44.820312 -50.578125 44.820312 -43.738281 L 44.820312 -16.738281 C 44.820312 -7.46875 52.378906 0 61.558594 0 L 64.621094 0 L 64.621094 -38.699219 C 64.621094 -51.121094 57.871094 -59.308594 45.539062 -59.308594 C 34.019531 -59.308594 28.261719 -52.109375 25.921875 -41.398438 C 25.921875 -50.671875 18.449219 -58.140625 9.179688 -58.140625 L 6.121094 -58.140625 L 6.121094 -16.738281 C 6.121094 -7.46875 13.679688 0 22.859375 0 L 25.921875 0 L 25.921875 -32.941406 C 26.640625 -44.550781 30.691406 -53.820312 37.980469 -53.820312 Z M 37.980469 -53.820312 "/></g></g></g><g fill="#3d3d3d" fill-opacity="1"><g transform="translate(539.330778, 200.737166)"><g/></g></g><g fill="#947f57" fill-opacity="1"><g transform="translate(491.839171, 117.247601)"><g><path d="M 1.4375 -10.65625 L 6.921875 -10.65625 L 6.921875 -9.625 L 2.546875 -9.625 L 2.546875 -6.046875 L 5.890625 -6.046875 L 5.890625 -5.015625 L 2.546875 -5.015625 L 2.546875 -1.03125 L 7 -1.03125 L 7 0 L 1.4375 0 Z M 1.4375 -10.65625 "/></g></g></g><g fill="#947f57" fill-opacity="1"><g transform="translate(504.556655, 117.247601)"><g><path d="M 1.4375 -10.65625 L 3.984375 -10.65625 C 4.503906 -10.65625 4.988281 -10.578125 5.4375 -10.421875 C 5.894531 -10.265625 6.285156 -10.039062 6.609375 -9.75 C 6.929688 -9.46875 7.179688 -9.128906 7.359375 -8.734375 C 7.546875 -8.335938 7.640625 -7.90625 7.640625 -7.4375 C 7.640625 -6.976562 7.546875 -6.550781 7.359375 -6.15625 C 7.179688 -5.757812 6.929688 -5.414062 6.609375 -5.125 C 6.285156 -4.84375 5.894531 -4.625 5.4375 -4.46875 C 4.988281 -4.3125 4.503906 -4.234375 3.984375 -4.234375 L 2.546875 -4.234375 L 2.546875 0 L 1.4375 0 Z M 3.984375 -5.265625 C 4.742188 -5.265625 5.351562 -5.460938 5.8125 -5.859375 C 6.28125 -6.253906 6.515625 -6.785156 6.515625 -7.453125 C 6.515625 -8.117188 6.28125 -8.644531 5.8125 -9.03125 C 5.351562 -9.425781 4.742188 -9.625 3.984375 -9.625 L 2.546875 -9.625 L 2.546875 -5.265625 Z M 3.984375 -5.265625 "/></g></g></g><g fill="#947f57" fill-opacity="1"><g transform="translate(517.67141, 117.247601)"><g><path d="M 1.4375 -10.65625 L 2.546875 -10.65625 L 2.546875 -5.890625 L 8.265625 -5.890625 L 8.265625 -10.65625 L 9.390625 -10.65625 L 9.390625 0 L 8.265625 0 L 8.265625 -4.84375 L 2.546875 -4.84375 L 2.546875 0 L 1.4375 0 Z M 1.4375 -10.65625 "/></g></g></g><g fill="#947f57" fill-opacity="1"><g transform="translate(533.249218, 117.247601)"><g><path d="M 1.4375 -10.65625 L 3.984375 -10.65625 C 4.503906 -10.65625 4.988281 -10.578125 5.4375 -10.421875 C 5.894531 -10.273438 6.285156 -10.0625 6.609375 -9.78125 C 6.929688 -9.5 7.179688 -9.164062 7.359375 -8.78125 C 7.546875 -8.394531 7.640625 -7.976562 7.640625 -7.53125 C 7.640625 -7.15625 7.578125 -6.804688 7.453125 -6.484375 C 7.335938 -6.160156 7.175781 -5.867188 6.96875 -5.609375 C 6.757812 -5.347656 6.503906 -5.125 6.203125 -4.9375 C 5.910156 -4.75 5.585938 -4.609375 5.234375 -4.515625 L 8.265625 0 L 6.9375 0 L 3.984375 -4.390625 L 2.546875 -4.390625 L 2.546875 0 L 1.4375 0 Z M 3.984375 -5.421875 C 4.742188 -5.421875 5.351562 -5.609375 5.8125 -5.984375 C 6.28125 -6.367188 6.515625 -6.890625 6.515625 -7.546875 C 6.515625 -8.179688 6.28125 -8.6875 5.8125 -9.0625 C 5.351562 -9.4375 4.742188 -9.625 3.984375 -9.625 L 2.546875 -9.625 L 2.546875 -5.421875 Z M 3.984375 -5.421875 "/></g></g></g><g fill="#947f57" fill-opacity="1"><g transform="translate(546.920143, 117.247601)"><g><path d="M 6.125 0.15625 C 5.394531 0.15625 4.703125 0.015625 4.046875 -0.265625 C 3.398438 -0.554688 2.835938 -0.945312 2.359375 -1.4375 C 1.878906 -1.9375 1.5 -2.519531 1.21875 -3.1875 C 0.9375 -3.851562 0.796875 -4.566406 0.796875 -5.328125 C 0.796875 -6.078125 0.9375 -6.785156 1.21875 -7.453125 C 1.5 -8.128906 1.878906 -8.710938 2.359375 -9.203125 C 2.835938 -9.703125 3.398438 -10.09375 4.046875 -10.375 C 4.703125 -10.664062 5.394531 -10.8125 6.125 -10.8125 C 6.851562 -10.8125 7.539062 -10.664062 8.1875 -10.375 C 8.832031 -10.09375 9.394531 -9.703125 9.875 -9.203125 C 10.363281 -8.710938 10.75 -8.132812 11.03125 -7.46875 C 11.3125 -6.800781 11.453125 -6.085938 11.453125 -5.328125 C 11.453125 -4.578125 11.3125 -3.867188 11.03125 -3.203125 C 10.75 -2.546875 10.363281 -1.96875 9.875 -1.46875 C 9.394531 -0.96875 8.832031 -0.570312 8.1875 -0.28125 C 7.539062 0.0078125 6.851562 0.15625 6.125 0.15625 Z M 6.125 -0.9375 C 6.707031 -0.9375 7.253906 -1.046875 7.765625 -1.265625 C 8.273438 -1.492188 8.710938 -1.800781 9.078125 -2.1875 C 9.441406 -2.582031 9.726562 -3.046875 9.9375 -3.578125 C 10.15625 -4.117188 10.265625 -4.703125 10.265625 -5.328125 C 10.265625 -5.953125 10.15625 -6.53125 9.9375 -7.0625 C 9.726562 -7.601562 9.441406 -8.066406 9.078125 -8.453125 C 8.710938 -8.847656 8.273438 -9.15625 7.765625 -9.375 C 7.253906 -9.601562 6.707031 -9.71875 6.125 -9.71875 C 5.53125 -9.71875 4.976562 -9.601562 4.46875 -9.375 C 3.96875 -9.15625 3.535156 -8.847656 3.171875 -8.453125 C 2.804688 -8.066406 2.515625 -7.601562 2.296875 -7.0625 C 2.085938 -6.53125 1.984375 -5.953125 1.984375 -5.328125 C 1.984375 -4.703125 2.085938 -4.117188 2.296875 -3.578125 C 2.515625 -3.046875 2.804688 -2.582031 3.171875 -2.1875 C 3.535156 -1.800781 3.96875 -1.492188 4.46875 -1.265625 C 4.976562 -1.046875 5.53125 -0.9375 6.125 -0.9375 Z M 6.125 -0.9375 "/></g></g></g><g fill="#947f57" fill-opacity="1"><g transform="translate(563.928112, 117.247601)"><g><path d="M 2.515625 -8.28125 L 2.515625 0 L 1.4375 0 L 1.4375 -10.96875 L 1.75 -10.96875 L 8.9375 -2.375 L 8.9375 -10.65625 L 10.015625 -10.65625 L 10.015625 0.3125 L 9.703125 0.3125 Z M 2.515625 -8.28125 "/></g></g></g><g fill="#947f57" fill-opacity="1"><g transform="translate(580.141551, 117.247601)"><g/></g></g><g fill="#947f57" fill-opacity="1"><g transform="translate(588.409655, 117.247601)"><g><path d="M 1.4375 -10.65625 L 3.984375 -10.65625 C 4.503906 -10.65625 4.988281 -10.578125 5.4375 -10.421875 C 5.894531 -10.273438 6.285156 -10.0625 6.609375 -9.78125 C 6.929688 -9.5 7.179688 -9.164062 7.359375 -8.78125 C 7.546875 -8.394531 7.640625 -7.976562 7.640625 -7.53125 C 7.640625 -7.15625 7.578125 -6.804688 7.453125 -6.484375 C 7.335938 -6.160156 7.175781 -5.867188 6.96875 -5.609375 C 6.757812 -5.347656 6.503906 -5.125 6.203125 -4.9375 C 5.910156 -4.75 5.585938 -4.609375 5.234375 -4.515625 L 8.265625 0 L 6.9375 0 L 3.984375 -4.390625 L 2.546875 -4.390625 L 2.546875 0 L 1.4375 0 Z M 3.984375 -5.421875 C 4.742188 -5.421875 5.351562 -5.609375 5.8125 -5.984375 C 6.28125 -6.367188 6.515625 -6.890625 6.515625 -7.546875 C 6.515625 -8.179688 6.28125 -8.6875 5.8125 -9.0625 C 5.351562 -9.4375 4.742188 -9.625 3.984375 -9.625 L 2.546875 -9.625 L 2.546875 -5.421875 Z M 3.984375 -5.421875 "/></g></g></g><g fill="#947f57" fill-opacity="1"><g transform="translate(602.080583, 117.247601)"><g><path d="M 6.125 0.15625 C 5.394531 0.15625 4.703125 0.015625 4.046875 -0.265625 C 3.398438 -0.554688 2.835938 -0.945312 2.359375 -1.4375 C 1.878906 -1.9375 1.5 -2.519531 1.21875 -3.1875 C 0.9375 -3.851562 0.796875 -4.566406 0.796875 -5.328125 C 0.796875 -6.078125 0.9375 -6.785156 1.21875 -7.453125 C 1.5 -8.128906 1.878906 -8.710938 2.359375 -9.203125 C 2.835938 -9.703125 3.398438 -10.09375 4.046875 -10.375 C 4.703125 -10.664062 5.394531 -10.8125 6.125 -10.8125 C 6.851562 -10.8125 7.539062 -10.664062 8.1875 -10.375 C 8.832031 -10.09375 9.394531 -9.703125 9.875 -9.203125 C 10.363281 -8.710938 10.75 -8.132812 11.03125 -7.46875 C 11.3125 -6.800781 11.453125 -6.085938 11.453125 -5.328125 C 11.453125 -4.578125 11.3125 -3.867188 11.03125 -3.203125 C 10.75 -2.546875 10.363281 -1.96875 9.875 -1.46875 C 9.394531 -0.96875 8.832031 -0.570312 8.1875 -0.28125 C 7.539062 0.0078125 6.851562 0.15625 6.125 0.15625 Z M 6.125 -0.9375 C 6.707031 -0.9375 7.253906 -1.046875 7.765625 -1.265625 C 8.273438 -1.492188 8.710938 -1.800781 9.078125 -2.1875 C 9.441406 -2.582031 9.726562 -3.046875 9.9375 -3.578125 C 10.15625 -4.117188 10.265625 -4.703125 10.265625 -5.328125 C 10.265625 -5.953125 10.15625 -6.53125 9.9375 -7.0625 C 9.726562 -7.601562 9.441406 -8.066406 9.078125 -8.453125 C 8.710938 -8.847656 8.273438 -9.15625 7.765625 -9.375 C 7.253906 -9.601562 6.707031 -9.71875 6.125 -9.71875 C 5.53125 -9.71875 4.976562 -9.601562 4.46875 -9.375 C 3.96875 -9.15625 3.535156 -8.847656 3.171875 -8.453125 C 2.804688 -8.066406 2.515625 -7.601562 2.296875 -7.0625 C 2.085938 -6.53125 1.984375 -5.953125 1.984375 -5.328125 C 1.984375 -4.703125 2.085938 -4.117188 2.296875 -3.578125 C 2.515625 -3.046875 2.804688 -2.582031 3.171875 -2.1875 C 3.535156 -1.800781 3.96875 -1.492188 4.46875 -1.265625 C 4.976562 -1.046875 5.53125 -0.9375 6.125 -0.9375 Z M 6.125 -0.9375 "/></g></g></g><g fill="#947f57" fill-opacity="1"><g transform="translate(619.088552, 117.247601)"><g><path d="M 3.578125 -4.140625 L 0.3125 -10.65625 L 1.578125 -10.65625 L 4.21875 -5.375 L 6.90625 -10.65625 L 8.0625 -10.65625 L 4.6875 -4.140625 L 4.6875 0 L 3.578125 0 Z M 3.578125 -4.140625 "/></g></g></g><g fill="#947f57" fill-opacity="1"><g transform="translate(632.235089, 117.247601)"><g><path d="M 4.53125 -10.96875 L 4.84375 -10.96875 L 8.90625 0 L 7.6875 0 L 6.6875 -2.796875 L 2.640625 -2.796875 L 1.640625 0 L 0.484375 0 Z M 6.3125 -3.828125 L 4.65625 -8.453125 L 3 -3.828125 Z M 6.3125 -3.828125 "/></g></g></g><g fill="#947f57" fill-opacity="1"><g transform="translate(646.382744, 117.247601)"><g><path d="M 1.4375 -10.65625 L 2.546875 -10.65625 L 2.546875 -1.03125 L 6.84375 -1.03125 L 6.84375 0 L 1.4375 0 Z M 1.4375 -10.65625 "/></g></g></g><g fill="#947f57" fill-opacity="1"><g transform="translate(658.702972, 117.247601)"><g/></g></g><g fill="#947f57" fill-opacity="1"><g transform="translate(666.971076, 117.247601)"><g><path d="M 1.4375 -10.65625 L 6.921875 -10.65625 L 6.921875 -9.625 L 2.546875 -9.625 L 2.546875 -5.71875 L 5.890625 -5.71875 L 5.890625 -4.6875 L 2.546875 -4.6875 L 2.546875 0 L 1.4375 0 Z M 1.4375 -10.65625 "/></g></g></g><g fill="#947f57" fill-opacity="1"><g transform="translate(679.291304, 117.247601)"><g><path d="M 1.4375 -10.65625 L 2.546875 -10.65625 L 2.546875 0 L 1.4375 0 Z M 1.4375 -10.65625 "/></g></g></g><g fill="#947f57" fill-opacity="1"><g transform="translate(688.036123, 117.247601)"><g><path d="M 3.984375 -9.625 L 0.484375 -9.625 L 0.484375 -10.65625 L 8.59375 -10.65625 L 8.59375 -9.625 L 5.09375 -9.625 L 5.09375 0 L 3.984375 0 Z M 3.984375 -9.625 "/></g></g></g><g fill="#947f57" fill-opacity="1"><g transform="translate(701.865965, 117.247601)"><g><path d="M 0.5625 -7.875 L 1.171875 -10.875 L 2.265625 -10.59375 L 1.28125 -7.6875 Z M 0.5625 -7.875 "/></g></g></g><g fill="#947f57" fill-opacity="1"><g transform="translate(709.450765, 117.247601)"><g><path d="M 4 0.15625 C 3.269531 0.15625 2.597656 -0.015625 1.984375 -0.359375 C 1.378906 -0.703125 0.878906 -1.195312 0.484375 -1.84375 L 1.34375 -2.546875 C 2.082031 -1.421875 2.972656 -0.859375 4.015625 -0.859375 C 4.640625 -0.859375 5.140625 -1.023438 5.515625 -1.359375 C 5.898438 -1.703125 6.09375 -2.15625 6.09375 -2.71875 C 6.09375 -3.207031 5.921875 -3.625 5.578125 -3.96875 C 5.234375 -4.320312 4.675781 -4.65625 3.90625 -4.96875 C 2.945312 -5.332031 2.25 -5.765625 1.8125 -6.265625 C 1.382812 -6.765625 1.171875 -7.359375 1.171875 -8.046875 C 1.171875 -8.460938 1.238281 -8.835938 1.375 -9.171875 C 1.519531 -9.515625 1.71875 -9.804688 1.96875 -10.046875 C 2.226562 -10.296875 2.535156 -10.484375 2.890625 -10.609375 C 3.242188 -10.742188 3.640625 -10.8125 4.078125 -10.8125 C 5.296875 -10.8125 6.300781 -10.269531 7.09375 -9.1875 L 6.234375 -8.5 C 5.921875 -8.9375 5.582031 -9.257812 5.21875 -9.46875 C 4.863281 -9.675781 4.476562 -9.78125 4.0625 -9.78125 C 3.519531 -9.78125 3.085938 -9.628906 2.765625 -9.328125 C 2.453125 -9.035156 2.296875 -8.640625 2.296875 -8.140625 C 2.296875 -7.660156 2.457031 -7.253906 2.78125 -6.921875 C 3.101562 -6.585938 3.640625 -6.273438 4.390625 -5.984375 C 5.359375 -5.609375 6.066406 -5.160156 6.515625 -4.640625 C 6.972656 -4.128906 7.203125 -3.519531 7.203125 -2.8125 C 7.203125 -2.375 7.125 -1.972656 6.96875 -1.609375 C 6.8125 -1.242188 6.585938 -0.925781 6.296875 -0.65625 C 6.015625 -0.394531 5.675781 -0.191406 5.28125 -0.046875 C 4.882812 0.0859375 4.457031 0.15625 4 0.15625 Z M 4 0.15625 "/></g></g></g></svg>