<svg xmlns="http://www.w3.org/2000/svg" xmlns:xlink="http://www.w3.org/1999/xlink" width="500" zoomAndPan="magnify" viewBox="0 0 375 374.999991" height="500" preserveAspectRatio="xMidYMid meet" version="1.0"><defs><clipPath id="b454d60255"><path d="M 80.015625 28.257812 L 295.027344 28.257812 L 295.027344 346.71875 L 80.015625 346.71875 Z M 80.015625 28.257812 " clip-rule="nonzero"/></clipPath></defs><rect x="-37.5" width="450" fill="#ffffff" y="-37.499999" height="449.999989" fill-opacity="1"/><rect x="-37.5" width="450" fill="#e8e8e8" y="-37.499999" height="449.999989" fill-opacity="1"/><g clip-path="url(#b454d60255)"><path fill="#947f57" d="M 288.277344 329.261719 C 297.402344 187.816406 251.898438 162.121094 203.796875 134.960938 C 196.140625 130.648438 188.445312 126.304688 180.851562 121.476562 C 191.347656 127.460938 201.964844 132.265625 212.210938 136.894531 C 264.496094 160.574219 309.730469 181.007812 288.277344 329.261719 Z M 286.835938 330.644531 C 283.863281 195.980469 240.824219 166 195.3125 134.277344 C 187.046875 128.523438 178.699219 122.703125 170.535156 116.179688 C 181.179688 123.757812 192.203125 129.984375 203.105469 136.144531 C 227.699219 149.992188 250.855469 163.097656 266.871094 190.605469 C 284.832031 221.414062 291.171875 265.929688 286.835938 330.644531 Z M 187.546875 133.976562 C 178.136719 125.941406 168.902344 118.035156 160.089844 109.183594 C 171.246094 119.238281 182.941406 127.382812 194.492188 135.417969 C 239.875 167.019531 282.644531 196.859375 285.453125 331.578125 C 270.171875 204.722656 228.203125 168.765625 187.546875 133.976562 Z M 180.867188 134.867188 C 171.269531 124.792969 161.871094 114.9375 152.972656 103.9375 C 163.589844 115.480469 174.941406 125.191406 186.5625 135.125 C 227.105469 169.785156 269.023438 205.691406 284.113281 332.882812 C 256.902344 214.742188 216.496094 172.289062 180.867188 134.867188 Z M 176.515625 139.351562 C 165.429688 125.0625 155.039062 111.644531 145.449219 96.855469 C 156.179688 111.265625 167.78125 123.445312 179.695312 135.945312 C 215.21875 173.265625 255.492188 215.5625 282.644531 333.515625 C 244.78125 227.355469 208.488281 180.585938 176.515625 139.351562 Z M 181.585938 160.671875 C 165.308594 135.308594 151.660156 113.96875 139.574219 90.632812 C 150.40625 108.378906 162.320312 123.789062 175.167969 140.371094 C 207.148438 181.585938 243.390625 228.273438 281.195312 334.421875 C 239.292969 250.871094 207.285156 200.859375 181.585938 160.671875 Z M 134.890625 85.277344 C 147.761719 111.125 162.378906 133.96875 180.046875 161.585938 C 205.792969 201.800781 237.824219 251.789062 279.699219 335.355469 C 195.527344 209.464844 161.144531 149.5625 134.890625 85.277344 Z M 130.183594 78.425781 C 156.867188 145.671875 190.535156 205.25 277.800781 335.734375 C 174.492188 216.296875 149.863281 142.675781 130.183594 78.425781 Z M 128.464844 81.710938 C 127.894531 78.988281 127.324219 76.292969 126.746094 73.625 C 146.71875 139.203125 169.863281 213.65625 275.8125 336.3125 C 160.066406 230.742188 142.527344 148.144531 128.464844 81.710938 Z M 125.1875 81.578125 C 124.652344 77.0625 124.125 72.707031 123.589844 68.484375 C 124.566406 72.949219 125.527344 77.492188 126.503906 82.105469 C 139.902344 145.121094 158.148438 231.21875 273.4375 336.78125 C 144.246094 242.597656 132.757812 145.828125 125.1875 81.578125 Z M 121.328125 78.046875 C 121.191406 72.933594 121.058594 68.09375 120.878906 63.53125 C 121.671875 69.328125 122.398438 75.410156 123.160156 81.804688 C 130.753906 146.097656 142.226562 242.75 270.285156 337.003906 C 126.382812 252.382812 123.238281 143.410156 121.328125 78.046875 Z M 117.792969 72.472656 C 118.070312 67.628906 118.328125 63.050781 118.519531 58.753906 C 118.839844 64.691406 119.039062 71.125 119.226562 78.105469 C 121.09375 143.558594 124.238281 252.367188 266.742188 337.402344 C 106.898438 261.257812 113.984375 138.761719 117.792969 72.472656 Z M 114.96875 65.199219 C 115.503906 61.476562 115.996094 57.988281 116.4375 54.722656 C 116.257812 60.070312 115.917969 65.96875 115.566406 72.34375 C 111.746094 138.71875 104.714844 261.160156 262.949219 338.015625 C 85.726562 269.722656 105.414062 132.03125 114.96875 65.199219 Z M 113.265625 56.199219 C 113.785156 53.996094 114.261719 51.921875 114.710938 49.960938 C 114.164062 54.46875 113.449219 59.488281 112.679688 64.90625 C 103.132812 131.789062 83.523438 269.1875 258.214844 338.621094 C 62.203125 277.609375 97.847656 123.03125 113.265625 56.199219 Z M 114.019531 248.347656 C 71.289062 174.449219 101.300781 81.847656 113.179688 45.890625 C 112.53125 48.890625 111.78125 52.171875 110.976562 55.671875 C 103.152344 89.441406 90.078125 146.035156 105.3125 202.726562 C 122.625 267.277344 172.296875 313.210938 253.109375 339.492188 C 186 322.636719 139.246094 292.003906 114.019531 248.347656 Z M 99.445312 245.828125 C 61.664062 170.796875 96.863281 75.9375 111.851562 42.117188 C 111.625 42.800781 111.402344 43.480469 111.175781 44.171875 C 99.445312 79.714844 68.265625 174.070312 111.894531 249.59375 C 136.757812 292.632812 182.148438 323.15625 247 340.46875 C 173.222656 325.625 123.625 293.867188 99.445312 245.828125 Z M 212.738281 135.746094 C 190.933594 125.890625 167.382812 115.222656 147.140625 93.96875 C 146.476562 93.242188 145.8125 92.515625 145.144531 91.765625 C 141.699219 87.679688 138.347656 83.289062 135.117188 78.523438 C 134.511719 77.582031 133.898438 76.628906 133.300781 75.664062 C 131.652344 72.855469 130.035156 69.960938 128.464844 66.953125 C 127.496094 64.992188 126.554688 62.980469 125.613281 60.941406 C 124.851562 59.144531 124.101562 57.296875 123.359375 55.457031 C 122.8125 53.976562 122.269531 52.484375 121.726562 50.996094 C 121.34375 49.789062 120.949219 48.578125 120.558594 47.378906 C 120.195312 46.019531 119.832031 44.671875 119.460938 43.34375 C 119.273438 42.503906 119.074219 41.667969 118.875 40.847656 C 118.703125 39.828125 118.503906 38.859375 118.304688 37.890625 C 118.199219 36.941406 118.0625 36.042969 117.914062 35.160156 C 117.871094 34.339844 117.792969 33.574219 117.699219 32.847656 C 117.714844 32.199219 117.707031 31.59375 117.65625 31.058594 C 117.75 30.472656 117.792969 29.988281 117.769531 29.597656 C 117.8125 29.511719 117.847656 29.460938 117.855469 29.433594 L 117.75 29.382812 C 117.734375 29.210938 117.699219 29.054688 117.65625 28.914062 L 117.179688 29.070312 L 115.660156 28.257812 C 115.566406 28.421875 114.285156 30.867188 112.265625 35.160156 L 112.257812 35.171875 C 112.257812 35.179688 112.257812 35.179688 112.257812 35.179688 C 112.1875 35.328125 112.128906 35.457031 112.058594 35.601562 L 111.996094 35.628906 C 111.996094 35.65625 112.007812 35.671875 112.015625 35.699219 C 111.972656 35.785156 111.929688 35.886719 111.886719 35.972656 L 111.765625 36.027344 C 111.78125 36.058594 111.789062 36.105469 111.808594 36.148438 C 98.417969 64.949219 56.863281 166.96875 97.191406 246.976562 C 124.039062 300.324219 181.621094 333.894531 268.246094 346.730469 L 268.417969 345.558594 C 268.769531 345.625 269.109375 345.710938 269.460938 345.78125 L 269.722656 344.492188 C 270.042969 344.582031 270.351562 344.675781 270.671875 344.761719 L 271 343.476562 C 271.292969 343.570312 271.5625 343.683594 271.847656 343.785156 L 272.339844 342.445312 C 272.574219 342.550781 272.796875 342.664062 273.03125 342.765625 L 273.660156 341.445312 C 273.851562 341.558594 274.042969 341.667969 274.238281 341.789062 L 275 340.433594 C 275.148438 340.546875 275.300781 340.660156 275.449219 340.769531 L 276.375 339.457031 C 276.476562 339.542969 276.5625 339.640625 276.667969 339.726562 L 277.738281 338.550781 C 277.773438 338.59375 277.808594 338.628906 277.84375 338.671875 L 279.078125 337.644531 C 279.078125 337.644531 279.085938 337.652344 279.085938 337.660156 L 280.5625 336.640625 C 280.539062 336.605469 280.511719 336.570312 280.484375 336.539062 L 281.902344 335.828125 C 281.851562 335.714844 281.800781 335.621094 281.746094 335.519531 L 283.179688 335.007812 C 283.121094 334.84375 283.058594 334.6875 283.007812 334.523438 L 284.425781 334.1875 C 284.375 333.964844 284.320312 333.746094 284.269531 333.523438 L 285.667969 333.367188 C 285.636719 333.082031 285.601562 332.804688 285.566406 332.511719 L 286.878906 332.484375 C 286.878906 332.167969 286.871094 331.855469 286.863281 331.542969 L 288.132812 331.628906 C 288.148438 331.277344 288.175781 330.929688 288.191406 330.566406 L 289.339844 330.75 C 311.414062 180.359375 265.660156 159.6875 212.738281 135.746094 " fill-opacity="1" fill-rule="nonzero"/></g></svg>