<svg xmlns="http://www.w3.org/2000/svg" xmlns:xlink="http://www.w3.org/1999/xlink" width="500" zoomAndPan="magnify" viewBox="0 0 375 374.999991" height="500" preserveAspectRatio="xMidYMid meet" version="1.0"><defs><g/><clipPath id="17a67deb25"><path d="M 126.835938 37.664062 L 248.183594 37.664062 L 248.183594 217.40625 L 126.835938 217.40625 Z M 126.835938 37.664062 " clip-rule="nonzero"/></clipPath></defs><g fill="#ffffff" fill-opacity="1"><g transform="translate(29.905961, 287.593958)"><g><path d="M 23.847656 -0.988281 L 23.847656 -34.332031 L 46.9375 -34.332031 L 46.9375 -35.316406 L 23.847656 -35.316406 L 23.847656 -67.671875 L 49.824219 -67.671875 L 49.824219 -68.660156 L 6.152344 -68.660156 L 6.152344 -17.621094 C 6.152344 -7.898438 14.050781 0 23.847656 0 L 49.824219 0 L 49.824219 -0.988281 Z M 23.847656 -0.988281 "/></g></g></g><g fill="#ffffff" fill-opacity="1"><g transform="translate(78.510521, 287.593958)"><g><path d="M 39.34375 0.152344 C 51.496094 0.152344 59.242188 -9.113281 59.242188 -25.597656 C 59.242188 -41.621094 51.570312 -50.886719 39.496094 -50.886719 C 30.53125 -50.886719 24.230469 -45.269531 21.875 -35.089844 C 21.875 -43.292969 15.265625 -49.902344 7.0625 -49.902344 L 5.164062 -49.902344 L 5.164062 0.0742188 C 5.164062 8.203125 11.847656 14.886719 19.976562 14.886719 L 21.875 14.886719 L 21.875 -15.875 C 24.230469 -5.46875 30.382812 0.152344 39.34375 0.152344 Z M 21.875 -25.597656 C 21.875 -38.433594 27.039062 -46.9375 32.28125 -46.9375 C 37.824219 -46.9375 41.621094 -38.433594 41.621094 -25.597656 C 41.621094 -12.53125 37.824219 -3.796875 32.28125 -3.796875 C 27.039062 -3.796875 21.875 -12.53125 21.875 -25.597656 Z M 21.875 -25.597656 "/></g></g></g><g fill="#ffffff" fill-opacity="1"><g transform="translate(135.772906, 287.593958)"><g><path d="M 38.433594 -50.054688 C 28.710938 -50.054688 23.847656 -43.976562 21.875 -34.9375 L 21.875 -52.027344 C 21.875 -61.21875 14.429688 -68.660156 5.164062 -68.660156 L 5.164062 -16.710938 C 5.164062 -7.441406 12.683594 0 21.875 0 L 21.875 -27.796875 C 22.480469 -37.597656 25.898438 -45.417969 32.050781 -45.417969 C 36 -45.417969 37.824219 -42.683594 37.824219 -36.914062 L 37.824219 -16.710938 C 37.824219 -7.519531 45.34375 0 54.535156 0 L 54.535156 -32.660156 C 54.535156 -43.140625 48.835938 -50.054688 38.433594 -50.054688 Z M 38.433594 -50.054688 "/></g></g></g><g fill="#ffffff" fill-opacity="1"><g transform="translate(190.30125, 287.593958)"><g><path d="M 39.949219 -49.066406 L 39.949219 -50.054688 C 28.9375 -50.054688 23.847656 -43.445312 21.875 -34.332031 C 21.875 -42.457031 15.265625 -49.066406 7.140625 -49.066406 L 5.164062 -49.066406 L 5.164062 -14.734375 C 5.164062 -6.609375 11.773438 0 19.898438 0 L 21.875 0 L 21.875 -23.621094 C 21.875 -37.367188 25.671875 -49.066406 39.949219 -49.066406 Z M 39.949219 -49.066406 "/></g></g></g><g fill="#ffffff" fill-opacity="1"><g transform="translate(226.146904, 287.593958)"><g><path d="M 55.066406 -25.746094 C 55.066406 -40.9375 41.46875 -51.039062 28.863281 -51.039062 C 16.328125 -51.039062 2.660156 -40.9375 2.660156 -25.746094 C 2.660156 -10.328125 16.328125 0 28.863281 0 C 41.46875 0 55.066406 -10.328125 55.066406 -25.746094 Z M 20.355469 -25.746094 C 20.355469 -42.304688 22.785156 -50.054688 28.863281 -50.054688 C 34.9375 -50.054688 37.445312 -42.304688 37.445312 -25.746094 C 37.445312 -8.960938 34.9375 -0.988281 28.863281 -0.988281 C 22.785156 -0.988281 20.355469 -8.960938 20.355469 -25.746094 Z M 20.355469 -25.746094 "/></g></g></g><g fill="#ffffff" fill-opacity="1"><g transform="translate(279.15632, 287.593958)"><g><path d="M 32.050781 -45.417969 C 36 -45.417969 37.824219 -42.683594 37.824219 -36.914062 L 37.824219 -14.128906 C 37.824219 -6.304688 44.203125 0 51.953125 0 L 54.535156 0 L 54.535156 -32.660156 C 54.535156 -43.140625 48.835938 -50.054688 38.433594 -50.054688 C 28.710938 -50.054688 23.847656 -43.976562 21.875 -34.9375 C 21.875 -42.761719 15.570312 -49.066406 7.746094 -49.066406 L 5.164062 -49.066406 L 5.164062 -14.128906 C 5.164062 -6.304688 11.542969 0 19.292969 0 L 21.875 0 L 21.875 -27.796875 C 22.480469 -37.597656 25.898438 -45.417969 32.050781 -45.417969 Z M 32.050781 -45.417969 "/></g></g></g><g fill="#ffffff" fill-opacity="1"><g transform="translate(333.689062, 287.593958)"><g/></g></g><g fill="#ffffff" fill-opacity="1"><g transform="translate(74.692735, 332.340653)"><g><path d="M 1.4375 -10.65625 L 6.921875 -10.65625 L 6.921875 -9.625 L 2.546875 -9.625 L 2.546875 -6.046875 L 5.890625 -6.046875 L 5.890625 -5.015625 L 2.546875 -5.015625 L 2.546875 -1.03125 L 7 -1.03125 L 7 0 L 1.4375 0 Z M 1.4375 -10.65625 "/></g></g></g><g fill="#ffffff" fill-opacity="1"><g transform="translate(87.410218, 332.340653)"><g><path d="M 1.4375 -10.65625 L 3.984375 -10.65625 C 4.503906 -10.65625 4.988281 -10.578125 5.4375 -10.421875 C 5.894531 -10.265625 6.285156 -10.039062 6.609375 -9.75 C 6.929688 -9.46875 7.179688 -9.128906 7.359375 -8.734375 C 7.546875 -8.335938 7.640625 -7.90625 7.640625 -7.4375 C 7.640625 -6.976562 7.546875 -6.550781 7.359375 -6.15625 C 7.179688 -5.757812 6.929688 -5.414062 6.609375 -5.125 C 6.285156 -4.84375 5.894531 -4.625 5.4375 -4.46875 C 4.988281 -4.3125 4.503906 -4.234375 3.984375 -4.234375 L 2.546875 -4.234375 L 2.546875 0 L 1.4375 0 Z M 3.984375 -5.265625 C 4.742188 -5.265625 5.351562 -5.460938 5.8125 -5.859375 C 6.28125 -6.253906 6.515625 -6.785156 6.515625 -7.453125 C 6.515625 -8.117188 6.28125 -8.644531 5.8125 -9.03125 C 5.351562 -9.425781 4.742188 -9.625 3.984375 -9.625 L 2.546875 -9.625 L 2.546875 -5.265625 Z M 3.984375 -5.265625 "/></g></g></g><g fill="#ffffff" fill-opacity="1"><g transform="translate(100.524973, 332.340653)"><g><path d="M 1.4375 -10.65625 L 2.546875 -10.65625 L 2.546875 -5.890625 L 8.265625 -5.890625 L 8.265625 -10.65625 L 9.390625 -10.65625 L 9.390625 0 L 8.265625 0 L 8.265625 -4.84375 L 2.546875 -4.84375 L 2.546875 0 L 1.4375 0 Z M 1.4375 -10.65625 "/></g></g></g><g fill="#ffffff" fill-opacity="1"><g transform="translate(116.102781, 332.340653)"><g><path d="M 1.4375 -10.65625 L 3.984375 -10.65625 C 4.503906 -10.65625 4.988281 -10.578125 5.4375 -10.421875 C 5.894531 -10.273438 6.285156 -10.0625 6.609375 -9.78125 C 6.929688 -9.5 7.179688 -9.164062 7.359375 -8.78125 C 7.546875 -8.394531 7.640625 -7.976562 7.640625 -7.53125 C 7.640625 -7.15625 7.578125 -6.804688 7.453125 -6.484375 C 7.335938 -6.160156 7.175781 -5.867188 6.96875 -5.609375 C 6.757812 -5.347656 6.503906 -5.125 6.203125 -4.9375 C 5.910156 -4.75 5.585938 -4.609375 5.234375 -4.515625 L 8.265625 0 L 6.9375 0 L 3.984375 -4.390625 L 2.546875 -4.390625 L 2.546875 0 L 1.4375 0 Z M 3.984375 -5.421875 C 4.742188 -5.421875 5.351562 -5.609375 5.8125 -5.984375 C 6.28125 -6.367188 6.515625 -6.890625 6.515625 -7.546875 C 6.515625 -8.179688 6.28125 -8.6875 5.8125 -9.0625 C 5.351562 -9.4375 4.742188 -9.625 3.984375 -9.625 L 2.546875 -9.625 L 2.546875 -5.421875 Z M 3.984375 -5.421875 "/></g></g></g><g fill="#ffffff" fill-opacity="1"><g transform="translate(129.773705, 332.340653)"><g><path d="M 6.125 0.15625 C 5.394531 0.15625 4.703125 0.015625 4.046875 -0.265625 C 3.398438 -0.554688 2.835938 -0.945312 2.359375 -1.4375 C 1.878906 -1.9375 1.5 -2.519531 1.21875 -3.1875 C 0.9375 -3.851562 0.796875 -4.566406 0.796875 -5.328125 C 0.796875 -6.078125 0.9375 -6.785156 1.21875 -7.453125 C 1.5 -8.128906 1.878906 -8.710938 2.359375 -9.203125 C 2.835938 -9.703125 3.398438 -10.09375 4.046875 -10.375 C 4.703125 -10.664062 5.394531 -10.8125 6.125 -10.8125 C 6.851562 -10.8125 7.539062 -10.664062 8.1875 -10.375 C 8.832031 -10.09375 9.394531 -9.703125 9.875 -9.203125 C 10.363281 -8.710938 10.75 -8.132812 11.03125 -7.46875 C 11.3125 -6.800781 11.453125 -6.085938 11.453125 -5.328125 C 11.453125 -4.578125 11.3125 -3.867188 11.03125 -3.203125 C 10.75 -2.546875 10.363281 -1.96875 9.875 -1.46875 C 9.394531 -0.96875 8.832031 -0.570312 8.1875 -0.28125 C 7.539062 0.0078125 6.851562 0.15625 6.125 0.15625 Z M 6.125 -0.9375 C 6.707031 -0.9375 7.253906 -1.046875 7.765625 -1.265625 C 8.273438 -1.492188 8.710938 -1.800781 9.078125 -2.1875 C 9.441406 -2.582031 9.726562 -3.046875 9.9375 -3.578125 C 10.15625 -4.117188 10.265625 -4.703125 10.265625 -5.328125 C 10.265625 -5.953125 10.15625 -6.53125 9.9375 -7.0625 C 9.726562 -7.601562 9.441406 -8.066406 9.078125 -8.453125 C 8.710938 -8.847656 8.273438 -9.15625 7.765625 -9.375 C 7.253906 -9.601562 6.707031 -9.71875 6.125 -9.71875 C 5.53125 -9.71875 4.976562 -9.601562 4.46875 -9.375 C 3.96875 -9.15625 3.535156 -8.847656 3.171875 -8.453125 C 2.804688 -8.066406 2.515625 -7.601562 2.296875 -7.0625 C 2.085938 -6.53125 1.984375 -5.953125 1.984375 -5.328125 C 1.984375 -4.703125 2.085938 -4.117188 2.296875 -3.578125 C 2.515625 -3.046875 2.804688 -2.582031 3.171875 -2.1875 C 3.535156 -1.800781 3.96875 -1.492188 4.46875 -1.265625 C 4.976562 -1.046875 5.53125 -0.9375 6.125 -0.9375 Z M 6.125 -0.9375 "/></g></g></g><g fill="#ffffff" fill-opacity="1"><g transform="translate(146.781673, 332.340653)"><g><path d="M 2.515625 -8.28125 L 2.515625 0 L 1.4375 0 L 1.4375 -10.96875 L 1.75 -10.96875 L 8.9375 -2.375 L 8.9375 -10.65625 L 10.015625 -10.65625 L 10.015625 0.3125 L 9.703125 0.3125 Z M 2.515625 -8.28125 "/></g></g></g><g fill="#ffffff" fill-opacity="1"><g transform="translate(162.995112, 332.340653)"><g/></g></g><g fill="#ffffff" fill-opacity="1"><g transform="translate(171.263216, 332.340653)"><g><path d="M 1.4375 -10.65625 L 3.984375 -10.65625 C 4.503906 -10.65625 4.988281 -10.578125 5.4375 -10.421875 C 5.894531 -10.273438 6.285156 -10.0625 6.609375 -9.78125 C 6.929688 -9.5 7.179688 -9.164062 7.359375 -8.78125 C 7.546875 -8.394531 7.640625 -7.976562 7.640625 -7.53125 C 7.640625 -7.15625 7.578125 -6.804688 7.453125 -6.484375 C 7.335938 -6.160156 7.175781 -5.867188 6.96875 -5.609375 C 6.757812 -5.347656 6.503906 -5.125 6.203125 -4.9375 C 5.910156 -4.75 5.585938 -4.609375 5.234375 -4.515625 L 8.265625 0 L 6.9375 0 L 3.984375 -4.390625 L 2.546875 -4.390625 L 2.546875 0 L 1.4375 0 Z M 3.984375 -5.421875 C 4.742188 -5.421875 5.351562 -5.609375 5.8125 -5.984375 C 6.28125 -6.367188 6.515625 -6.890625 6.515625 -7.546875 C 6.515625 -8.179688 6.28125 -8.6875 5.8125 -9.0625 C 5.351562 -9.4375 4.742188 -9.625 3.984375 -9.625 L 2.546875 -9.625 L 2.546875 -5.421875 Z M 3.984375 -5.421875 "/></g></g></g><g fill="#ffffff" fill-opacity="1"><g transform="translate(184.934144, 332.340653)"><g><path d="M 6.125 0.15625 C 5.394531 0.15625 4.703125 0.015625 4.046875 -0.265625 C 3.398438 -0.554688 2.835938 -0.945312 2.359375 -1.4375 C 1.878906 -1.9375 1.5 -2.519531 1.21875 -3.1875 C 0.9375 -3.851562 0.796875 -4.566406 0.796875 -5.328125 C 0.796875 -6.078125 0.9375 -6.785156 1.21875 -7.453125 C 1.5 -8.128906 1.878906 -8.710938 2.359375 -9.203125 C 2.835938 -9.703125 3.398438 -10.09375 4.046875 -10.375 C 4.703125 -10.664062 5.394531 -10.8125 6.125 -10.8125 C 6.851562 -10.8125 7.539062 -10.664062 8.1875 -10.375 C 8.832031 -10.09375 9.394531 -9.703125 9.875 -9.203125 C 10.363281 -8.710938 10.75 -8.132812 11.03125 -7.46875 C 11.3125 -6.800781 11.453125 -6.085938 11.453125 -5.328125 C 11.453125 -4.578125 11.3125 -3.867188 11.03125 -3.203125 C 10.75 -2.546875 10.363281 -1.96875 9.875 -1.46875 C 9.394531 -0.96875 8.832031 -0.570312 8.1875 -0.28125 C 7.539062 0.0078125 6.851562 0.15625 6.125 0.15625 Z M 6.125 -0.9375 C 6.707031 -0.9375 7.253906 -1.046875 7.765625 -1.265625 C 8.273438 -1.492188 8.710938 -1.800781 9.078125 -2.1875 C 9.441406 -2.582031 9.726562 -3.046875 9.9375 -3.578125 C 10.15625 -4.117188 10.265625 -4.703125 10.265625 -5.328125 C 10.265625 -5.953125 10.15625 -6.53125 9.9375 -7.0625 C 9.726562 -7.601562 9.441406 -8.066406 9.078125 -8.453125 C 8.710938 -8.847656 8.273438 -9.15625 7.765625 -9.375 C 7.253906 -9.601562 6.707031 -9.71875 6.125 -9.71875 C 5.53125 -9.71875 4.976562 -9.601562 4.46875 -9.375 C 3.96875 -9.15625 3.535156 -8.847656 3.171875 -8.453125 C 2.804688 -8.066406 2.515625 -7.601562 2.296875 -7.0625 C 2.085938 -6.53125 1.984375 -5.953125 1.984375 -5.328125 C 1.984375 -4.703125 2.085938 -4.117188 2.296875 -3.578125 C 2.515625 -3.046875 2.804688 -2.582031 3.171875 -2.1875 C 3.535156 -1.800781 3.96875 -1.492188 4.46875 -1.265625 C 4.976562 -1.046875 5.53125 -0.9375 6.125 -0.9375 Z M 6.125 -0.9375 "/></g></g></g><g fill="#ffffff" fill-opacity="1"><g transform="translate(201.942112, 332.340653)"><g><path d="M 3.578125 -4.140625 L 0.3125 -10.65625 L 1.578125 -10.65625 L 4.21875 -5.375 L 6.90625 -10.65625 L 8.0625 -10.65625 L 4.6875 -4.140625 L 4.6875 0 L 3.578125 0 Z M 3.578125 -4.140625 "/></g></g></g><g fill="#ffffff" fill-opacity="1"><g transform="translate(215.088649, 332.340653)"><g><path d="M 4.53125 -10.96875 L 4.84375 -10.96875 L 8.90625 0 L 7.6875 0 L 6.6875 -2.796875 L 2.640625 -2.796875 L 1.640625 0 L 0.484375 0 Z M 6.3125 -3.828125 L 4.65625 -8.453125 L 3 -3.828125 Z M 6.3125 -3.828125 "/></g></g></g><g fill="#ffffff" fill-opacity="1"><g transform="translate(229.236304, 332.340653)"><g><path d="M 1.4375 -10.65625 L 2.546875 -10.65625 L 2.546875 -1.03125 L 6.84375 -1.03125 L 6.84375 0 L 1.4375 0 Z M 1.4375 -10.65625 "/></g></g></g><g fill="#ffffff" fill-opacity="1"><g transform="translate(241.556531, 332.340653)"><g/></g></g><g fill="#ffffff" fill-opacity="1"><g transform="translate(249.824635, 332.340653)"><g><path d="M 0.5625 -7.875 L 1.171875 -10.875 L 2.265625 -10.59375 L 1.28125 -7.6875 Z M 0.5625 -7.875 "/></g></g></g><g fill="#ffffff" fill-opacity="1"><g transform="translate(257.409447, 332.340653)"><g><path d="M 1.4375 -10.65625 L 6.921875 -10.65625 L 6.921875 -9.625 L 2.546875 -9.625 L 2.546875 -5.71875 L 5.890625 -5.71875 L 5.890625 -4.6875 L 2.546875 -4.6875 L 2.546875 0 L 1.4375 0 Z M 1.4375 -10.65625 "/></g></g></g><g fill="#ffffff" fill-opacity="1"><g transform="translate(269.729663, 332.340653)"><g><path d="M 1.4375 -10.65625 L 2.546875 -10.65625 L 2.546875 0 L 1.4375 0 Z M 1.4375 -10.65625 "/></g></g></g><g fill="#ffffff" fill-opacity="1"><g transform="translate(278.474483, 332.340653)"><g><path d="M 3.984375 -9.625 L 0.484375 -9.625 L 0.484375 -10.65625 L 8.59375 -10.65625 L 8.59375 -9.625 L 5.09375 -9.625 L 5.09375 0 L 3.984375 0 Z M 3.984375 -9.625 "/></g></g></g><g fill="#ffffff" fill-opacity="1"><g transform="translate(292.304323, 332.340653)"><g><path d="M 4 0.15625 C 3.269531 0.15625 2.597656 -0.015625 1.984375 -0.359375 C 1.378906 -0.703125 0.878906 -1.195312 0.484375 -1.84375 L 1.34375 -2.546875 C 2.082031 -1.421875 2.972656 -0.859375 4.015625 -0.859375 C 4.640625 -0.859375 5.140625 -1.023438 5.515625 -1.359375 C 5.898438 -1.703125 6.09375 -2.15625 6.09375 -2.71875 C 6.09375 -3.207031 5.921875 -3.625 5.578125 -3.96875 C 5.234375 -4.320312 4.675781 -4.65625 3.90625 -4.96875 C 2.945312 -5.332031 2.25 -5.765625 1.8125 -6.265625 C 1.382812 -6.765625 1.171875 -7.359375 1.171875 -8.046875 C 1.171875 -8.460938 1.238281 -8.835938 1.375 -9.171875 C 1.519531 -9.515625 1.71875 -9.804688 1.96875 -10.046875 C 2.226562 -10.296875 2.535156 -10.484375 2.890625 -10.609375 C 3.242188 -10.742188 3.640625 -10.8125 4.078125 -10.8125 C 5.296875 -10.8125 6.300781 -10.269531 7.09375 -9.1875 L 6.234375 -8.5 C 5.921875 -8.9375 5.582031 -9.257812 5.21875 -9.46875 C 4.863281 -9.675781 4.476562 -9.78125 4.0625 -9.78125 C 3.519531 -9.78125 3.085938 -9.628906 2.765625 -9.328125 C 2.453125 -9.035156 2.296875 -8.640625 2.296875 -8.140625 C 2.296875 -7.660156 2.457031 -7.253906 2.78125 -6.921875 C 3.101562 -6.585938 3.640625 -6.273438 4.390625 -5.984375 C 5.359375 -5.609375 6.066406 -5.160156 6.515625 -4.640625 C 6.972656 -4.128906 7.203125 -3.519531 7.203125 -2.8125 C 7.203125 -2.375 7.125 -1.972656 6.96875 -1.609375 C 6.8125 -1.242188 6.585938 -0.925781 6.296875 -0.65625 C 6.015625 -0.394531 5.675781 -0.191406 5.28125 -0.046875 C 4.882812 0.0859375 4.457031 0.15625 4 0.15625 Z M 4 0.15625 "/></g></g></g><g clip-path="url(#17a67deb25)"><path fill="#947f57" d="M 244.375 207.546875 C 249.523438 127.714844 223.84375 113.214844 196.695312 97.886719 C 192.375 95.453125 188.03125 93 183.746094 90.273438 C 189.671875 93.652344 195.664062 96.363281 201.445312 98.976562 C 230.953125 112.34375 256.484375 123.875 244.375 207.546875 Z M 243.5625 208.328125 C 241.882812 132.324219 217.59375 115.402344 191.910156 97.5 C 187.242188 94.253906 182.53125 90.96875 177.925781 87.285156 C 183.929688 91.5625 190.152344 95.078125 196.304688 98.554688 C 210.1875 106.371094 223.253906 113.765625 232.292969 129.289062 C 242.429688 146.675781 246.007812 171.800781 243.5625 208.328125 Z M 187.523438 97.328125 C 182.214844 92.796875 177.003906 88.335938 172.03125 83.335938 C 178.324219 89.011719 184.925781 93.609375 191.445312 98.144531 C 217.058594 115.980469 241.195312 132.820312 242.78125 208.851562 C 234.15625 137.257812 210.46875 116.964844 187.523438 97.328125 Z M 183.757812 97.832031 C 178.339844 92.148438 173.035156 86.582031 168.011719 80.375 C 174.003906 86.890625 180.410156 92.371094 186.96875 97.976562 C 209.851562 117.539062 233.507812 137.804688 242.027344 209.589844 C 226.667969 142.914062 203.863281 118.953125 183.757812 97.832031 Z M 181.296875 100.363281 C 175.042969 92.296875 169.175781 84.726562 163.765625 76.378906 C 169.820312 84.511719 176.371094 91.386719 183.09375 98.441406 C 203.140625 119.503906 225.871094 143.375 241.195312 209.945312 C 219.828125 150.03125 199.34375 123.632812 181.296875 100.363281 Z M 184.160156 112.394531 C 174.976562 98.082031 167.269531 86.039062 160.449219 72.867188 C 166.5625 82.882812 173.289062 91.582031 180.539062 100.9375 C 198.589844 124.199219 219.042969 150.546875 240.378906 210.457031 C 216.730469 163.304688 198.664062 135.078125 184.160156 112.394531 Z M 157.808594 69.84375 C 165.070312 84.433594 173.320312 97.324219 183.292969 112.914062 C 197.824219 135.609375 215.902344 163.820312 239.535156 210.984375 C 192.03125 139.933594 172.625 106.125 157.808594 69.84375 Z M 155.148438 65.980469 C 170.210938 103.933594 189.210938 137.554688 238.460938 211.199219 C 180.15625 143.789062 166.257812 102.238281 155.148438 65.980469 Z M 154.179688 67.832031 C 153.859375 66.296875 153.535156 64.773438 153.210938 63.269531 C 164.480469 100.28125 177.542969 142.300781 237.339844 211.523438 C 172.015625 151.941406 162.117188 105.324219 154.179688 67.832031 Z M 152.332031 67.757812 C 152.03125 65.207031 151.730469 62.75 151.429688 60.367188 C 151.980469 62.886719 152.523438 65.453125 153.074219 68.054688 C 160.636719 103.621094 170.933594 152.210938 236 211.789062 C 163.085938 158.632812 156.601562 104.019531 152.332031 67.757812 Z M 150.152344 65.765625 C 150.074219 62.878906 150 60.148438 149.898438 57.574219 C 150.347656 60.84375 150.757812 64.277344 151.1875 67.886719 C 155.472656 104.171875 161.945312 158.71875 234.21875 211.914062 C 153.003906 164.15625 151.230469 102.652344 150.152344 65.765625 Z M 148.15625 62.621094 C 148.3125 59.882812 148.460938 57.300781 148.566406 54.875 C 148.75 58.226562 148.859375 61.859375 148.96875 65.796875 C 150.019531 102.738281 151.796875 164.148438 232.222656 212.140625 C 142.011719 169.164062 146.007812 100.03125 148.15625 62.621094 Z M 146.5625 58.515625 C 146.867188 56.414062 147.144531 54.441406 147.394531 52.601562 C 147.289062 55.617188 147.101562 58.949219 146.898438 62.546875 C 144.746094 100.007812 140.777344 169.109375 230.082031 212.484375 C 130.058594 173.941406 141.171875 96.234375 146.5625 58.515625 Z M 145.601562 53.433594 C 145.894531 52.191406 146.164062 51.019531 146.417969 49.914062 C 146.109375 52.457031 145.707031 55.292969 145.273438 58.347656 C 139.882812 96.097656 128.816406 173.640625 227.410156 212.828125 C 116.78125 178.394531 136.898438 91.152344 145.601562 53.433594 Z M 146.027344 161.878906 C 121.910156 120.171875 138.851562 67.910156 145.554688 47.617188 C 145.1875 49.308594 144.765625 51.160156 144.3125 53.136719 C 139.894531 72.195312 132.515625 104.136719 141.113281 136.132812 C 150.882812 172.5625 178.917969 198.488281 224.527344 213.320312 C 186.652344 203.804688 160.265625 186.515625 146.027344 161.878906 Z M 137.800781 160.457031 C 116.480469 118.109375 136.34375 64.574219 144.804688 45.484375 C 144.675781 45.871094 144.550781 46.257812 144.421875 46.648438 C 137.800781 66.707031 120.207031 119.957031 144.828125 162.582031 C 158.859375 186.871094 184.476562 204.097656 221.078125 213.871094 C 179.441406 205.492188 151.449219 187.570312 137.800781 160.457031 Z M 201.742188 98.328125 C 189.4375 92.765625 176.144531 86.746094 164.722656 74.75 C 164.34375 74.339844 163.96875 73.929688 163.59375 73.507812 C 161.648438 71.199219 159.757812 68.722656 157.933594 66.03125 C 157.59375 65.5 157.246094 64.964844 156.910156 64.417969 C 155.980469 62.832031 155.066406 61.199219 154.179688 59.503906 C 153.632812 58.398438 153.101562 57.261719 152.570312 56.109375 C 152.140625 55.097656 151.71875 54.054688 151.296875 53.015625 C 150.992188 52.179688 150.683594 51.335938 150.375 50.5 C 150.160156 49.816406 149.9375 49.132812 149.71875 48.457031 C 149.511719 47.691406 149.308594 46.929688 149.097656 46.179688 C 148.992188 45.707031 148.878906 45.234375 148.769531 44.769531 C 148.671875 44.195312 148.558594 43.648438 148.445312 43.101562 C 148.386719 42.566406 148.308594 42.058594 148.226562 41.5625 C 148.203125 41.097656 148.15625 40.664062 148.105469 40.253906 C 148.113281 39.890625 148.109375 39.546875 148.082031 39.246094 C 148.132812 38.914062 148.15625 38.640625 148.144531 38.421875 C 148.167969 38.371094 148.1875 38.34375 148.191406 38.328125 L 148.132812 38.300781 C 148.125 38.203125 148.105469 38.113281 148.082031 38.035156 L 147.8125 38.125 L 146.953125 37.664062 C 146.898438 37.757812 146.179688 39.136719 145.039062 41.5625 L 145.03125 41.566406 C 145.03125 41.570312 145.03125 41.570312 145.03125 41.570312 C 144.992188 41.652344 144.960938 41.726562 144.921875 41.808594 L 144.886719 41.824219 C 144.886719 41.839844 144.890625 41.847656 144.894531 41.863281 C 144.871094 41.914062 144.847656 41.96875 144.824219 42.019531 L 144.753906 42.046875 C 144.765625 42.066406 144.769531 42.09375 144.777344 42.117188 C 137.222656 58.371094 113.769531 115.949219 136.53125 161.105469 C 151.683594 191.210938 184.179688 210.160156 233.070312 217.40625 L 233.167969 216.742188 C 233.367188 216.78125 233.558594 216.828125 233.757812 216.867188 L 233.902344 216.140625 C 234.082031 216.191406 234.257812 216.246094 234.4375 216.292969 L 234.625 215.566406 C 234.789062 215.621094 234.941406 215.683594 235.101562 215.742188 L 235.378906 214.988281 C 235.511719 215.046875 235.640625 215.109375 235.769531 215.167969 L 236.125 214.421875 C 236.234375 214.484375 236.339844 214.546875 236.453125 214.617188 L 236.882812 213.851562 C 236.964844 213.914062 237.054688 213.976562 237.136719 214.039062 L 237.65625 213.300781 C 237.714844 213.347656 237.765625 213.402344 237.824219 213.449219 L 238.425781 212.789062 C 238.445312 212.8125 238.464844 212.832031 238.484375 212.855469 L 239.183594 212.277344 C 239.183594 212.277344 239.1875 212.28125 239.1875 212.285156 L 240.023438 211.710938 C 240.007812 211.691406 239.992188 211.671875 239.976562 211.652344 L 240.777344 211.25 C 240.75 211.1875 240.71875 211.132812 240.691406 211.078125 L 241.5 210.789062 C 241.464844 210.695312 241.429688 210.609375 241.402344 210.515625 L 242.203125 210.324219 C 242.171875 210.199219 242.144531 210.078125 242.113281 209.949219 L 242.902344 209.863281 C 242.882812 209.703125 242.863281 209.546875 242.84375 209.378906 L 243.585938 209.363281 C 243.585938 209.183594 243.582031 209.007812 243.578125 208.832031 L 244.292969 208.882812 C 244.304688 208.683594 244.316406 208.488281 244.328125 208.28125 L 244.976562 208.386719 C 257.433594 123.507812 231.613281 111.839844 201.742188 98.328125 " fill-opacity="1" fill-rule="nonzero"/></g></svg>