<svg xmlns="http://www.w3.org/2000/svg" xmlns:xlink="http://www.w3.org/1999/xlink" width="1000" zoomAndPan="magnify" viewBox="0 0 750 225" height="300" preserveAspectRatio="xMidYMid meet" version="1.0"><defs><g/><clipPath id="3df3ef3288"><path d="M 22.5 23.308594 L 143.847656 23.308594 L 143.847656 203.050781 L 22.5 203.050781 Z M 22.5 23.308594 " clip-rule="nonzero"/></clipPath></defs><rect x="-75" width="900" fill="#ffffff" y="-22.5" height="270" fill-opacity="1"/><rect x="-75" width="900" fill="#e8e8e8" y="-22.5" height="270" fill-opacity="1"/><g clip-path="url(#3df3ef3288)"><path fill="#947f57" d="M 140.039062 193.191406 C 145.1875 113.359375 119.507812 98.859375 92.359375 83.53125 C 88.039062 81.097656 83.695312 78.644531 79.410156 75.917969 C 85.332031 79.296875 91.324219 82.007812 97.109375 84.621094 C 126.617188 97.988281 152.144531 109.519531 140.039062 193.191406 Z M 139.226562 193.972656 C 137.546875 117.96875 113.257812 101.050781 87.570312 83.144531 C 82.90625 79.898438 78.195312 76.613281 73.589844 72.929688 C 79.59375 77.207031 85.816406 80.722656 91.96875 84.199219 C 105.851562 92.015625 118.917969 99.410156 127.957031 114.933594 C 138.09375 132.320312 141.671875 157.445312 139.226562 193.972656 Z M 83.1875 82.976562 C 77.878906 78.441406 72.667969 73.980469 67.691406 68.980469 C 73.988281 74.65625 80.589844 79.253906 87.109375 83.789062 C 112.722656 101.625 136.859375 118.464844 138.445312 194.496094 C 129.820312 122.902344 106.132812 102.609375 83.1875 82.976562 Z M 79.417969 83.476562 C 74.003906 77.792969 68.699219 72.230469 63.675781 66.023438 C 69.667969 72.535156 76.074219 78.015625 82.632812 83.625 C 105.515625 103.183594 129.171875 123.449219 137.691406 195.234375 C 122.332031 128.558594 99.527344 104.597656 79.417969 83.476562 Z M 76.960938 86.007812 C 70.707031 77.941406 64.839844 70.371094 59.429688 62.023438 C 65.484375 70.15625 72.03125 77.03125 78.757812 84.085938 C 98.804688 105.148438 121.535156 129.019531 136.859375 195.589844 C 115.492188 135.675781 95.007812 109.28125 76.960938 86.007812 Z M 79.824219 98.039062 C 70.636719 83.726562 62.933594 71.683594 56.113281 58.511719 C 62.226562 68.527344 68.953125 77.226562 76.203125 86.582031 C 94.25 109.84375 114.707031 136.195312 136.042969 196.101562 C 112.394531 148.949219 94.328125 120.722656 79.824219 98.039062 Z M 53.472656 55.488281 C 60.734375 70.078125 68.984375 82.96875 78.957031 98.558594 C 93.484375 121.253906 111.566406 149.464844 135.199219 196.628906 C 87.695312 125.578125 68.289062 91.769531 53.472656 55.488281 Z M 50.8125 51.625 C 65.875 89.578125 84.875 123.199219 134.125 196.84375 C 75.820312 129.4375 61.921875 87.882812 50.8125 51.625 Z M 49.84375 53.476562 C 49.519531 51.941406 49.199219 50.417969 48.871094 48.914062 C 60.144531 85.925781 73.207031 127.945312 133.003906 197.167969 C 67.679688 137.589844 57.78125 90.972656 49.84375 53.476562 Z M 47.996094 53.402344 C 47.691406 50.851562 47.394531 48.394531 47.09375 46.011719 C 47.644531 48.53125 48.183594 51.097656 48.738281 53.699219 C 56.296875 89.265625 66.597656 137.855469 131.664062 197.433594 C 58.75 144.277344 52.265625 89.664062 47.996094 53.402344 Z M 45.816406 51.410156 C 45.738281 48.523438 45.664062 45.792969 45.5625 43.21875 C 46.011719 46.488281 46.421875 49.921875 46.847656 53.53125 C 51.136719 89.816406 57.609375 144.367188 129.882812 197.558594 C 48.667969 149.800781 46.894531 88.300781 45.816406 51.410156 Z M 43.820312 48.265625 C 43.976562 45.527344 44.125 42.945312 44.230469 40.523438 C 44.410156 43.871094 44.523438 47.503906 44.632812 51.441406 C 45.683594 88.382812 47.457031 149.792969 127.882812 197.785156 C 37.671875 154.808594 41.671875 85.675781 43.820312 48.265625 Z M 42.226562 44.160156 C 42.53125 42.058594 42.808594 40.085938 43.054688 38.246094 C 42.953125 41.261719 42.761719 44.59375 42.5625 48.191406 C 40.410156 85.652344 36.441406 154.753906 125.742188 198.128906 C 25.722656 159.585938 36.835938 81.878906 42.226562 44.160156 Z M 41.265625 39.078125 C 41.558594 37.835938 41.828125 36.664062 42.082031 35.558594 C 41.773438 38.101562 41.371094 40.9375 40.933594 43.992188 C 35.546875 81.742188 24.480469 159.285156 123.070312 198.472656 C 12.445312 164.039062 32.5625 76.796875 41.265625 39.078125 Z M 41.691406 147.523438 C 17.574219 105.816406 34.515625 53.554688 41.21875 33.261719 C 40.851562 34.953125 40.429688 36.804688 39.976562 38.78125 C 35.558594 57.839844 28.179688 89.78125 36.777344 121.777344 C 46.546875 158.207031 74.582031 184.132812 120.191406 198.964844 C 82.316406 189.453125 55.929688 172.160156 41.691406 147.523438 Z M 33.464844 146.101562 C 12.144531 103.753906 32.007812 50.21875 40.46875 31.128906 C 40.339844 31.515625 40.214844 31.902344 40.085938 32.292969 C 33.464844 52.351562 15.867188 105.601562 40.492188 148.226562 C 54.523438 172.519531 80.140625 189.742188 116.742188 199.515625 C 75.105469 191.136719 47.113281 173.214844 33.464844 146.101562 Z M 97.40625 83.972656 C 85.101562 78.410156 71.808594 72.390625 60.382812 60.394531 C 60.007812 59.984375 59.632812 59.574219 59.257812 59.152344 C 57.3125 56.84375 55.421875 54.367188 53.597656 51.675781 C 53.257812 51.144531 52.910156 50.609375 52.574219 50.0625 C 51.640625 48.480469 50.730469 46.84375 49.84375 45.148438 C 49.296875 44.042969 48.765625 42.90625 48.234375 41.753906 C 47.804688 40.742188 47.382812 39.699219 46.960938 38.660156 C 46.65625 37.824219 46.347656 36.980469 46.039062 36.144531 C 45.824219 35.460938 45.601562 34.777344 45.382812 34.101562 C 45.175781 33.335938 44.972656 32.574219 44.761719 31.824219 C 44.65625 31.351562 44.542969 30.878906 44.429688 30.414062 C 44.332031 29.839844 44.222656 29.292969 44.109375 28.746094 C 44.050781 28.210938 43.972656 27.703125 43.890625 27.207031 C 43.867188 26.742188 43.820312 26.308594 43.769531 25.898438 C 43.777344 25.535156 43.773438 25.191406 43.742188 24.890625 C 43.796875 24.558594 43.820312 24.285156 43.808594 24.066406 C 43.832031 24.015625 43.851562 23.988281 43.855469 23.972656 L 43.796875 23.945312 C 43.789062 23.847656 43.769531 23.757812 43.742188 23.679688 L 43.476562 23.769531 L 42.617188 23.308594 C 42.5625 23.402344 41.84375 24.78125 40.699219 27.207031 L 40.695312 27.210938 C 40.695312 27.214844 40.695312 27.214844 40.695312 27.214844 C 40.65625 27.296875 40.625 27.371094 40.585938 27.453125 L 40.550781 27.46875 C 40.550781 27.484375 40.554688 27.492188 40.558594 27.507812 C 40.535156 27.558594 40.511719 27.617188 40.488281 27.664062 L 40.417969 27.695312 C 40.429688 27.714844 40.433594 27.738281 40.441406 27.761719 C 32.886719 44.015625 9.433594 101.59375 32.191406 146.75 C 47.347656 176.855469 79.84375 195.804688 128.734375 203.050781 L 128.832031 202.386719 C 129.03125 202.425781 129.21875 202.472656 129.421875 202.511719 L 129.566406 201.785156 C 129.746094 201.835938 129.921875 201.890625 130.101562 201.9375 L 130.289062 201.210938 C 130.453125 201.265625 130.605469 201.328125 130.765625 201.386719 L 131.042969 200.632812 C 131.175781 200.691406 131.300781 200.753906 131.433594 200.8125 L 131.789062 200.066406 C 131.898438 200.128906 132.003906 200.191406 132.117188 200.261719 L 132.546875 199.496094 C 132.628906 199.558594 132.714844 199.621094 132.800781 199.683594 L 133.320312 198.945312 C 133.378906 198.992188 133.429688 199.046875 133.488281 199.09375 L 134.089844 198.433594 C 134.109375 198.457031 134.128906 198.476562 134.148438 198.5 L 134.847656 197.921875 C 134.847656 197.921875 134.851562 197.925781 134.851562 197.929688 L 135.6875 197.355469 C 135.671875 197.335938 135.65625 197.316406 135.640625 197.296875 L 136.441406 196.898438 C 136.410156 196.832031 136.382812 196.78125 136.355469 196.722656 L 137.164062 196.433594 C 137.128906 196.339844 137.09375 196.253906 137.066406 196.160156 L 137.863281 195.96875 C 137.835938 195.84375 137.804688 195.722656 137.777344 195.59375 L 138.566406 195.507812 C 138.546875 195.347656 138.527344 195.191406 138.507812 195.023438 L 139.25 195.007812 C 139.25 194.828125 139.246094 194.652344 139.238281 194.476562 L 139.957031 194.527344 C 139.964844 194.328125 139.980469 194.132812 139.992188 193.925781 L 140.640625 194.03125 C 153.097656 109.152344 127.273438 97.484375 97.40625 83.972656 " fill-opacity="1" fill-rule="nonzero"/></g><g fill="#3d3d3d" fill-opacity="1"><g transform="translate(179.330793, 194.268253)"><g><path d="M 42.863281 -1.773438 L 42.863281 -61.703125 L 84.363281 -61.703125 L 84.363281 -63.476562 L 42.863281 -63.476562 L 42.863281 -121.628906 L 89.550781 -121.628906 L 89.550781 -123.402344 L 11.058594 -123.402344 L 11.058594 -31.671875 C 11.058594 -14.195312 25.253906 0 42.863281 0 L 89.550781 0 L 89.550781 -1.773438 Z M 42.863281 -1.773438 "/></g></g></g><g fill="#3d3d3d" fill-opacity="1"><g transform="translate(266.696378, 194.268253)"><g><path d="M 70.710938 0.273438 C 92.554688 0.273438 106.476562 -16.382812 106.476562 -46.003906 C 106.476562 -74.808594 92.691406 -91.460938 70.984375 -91.460938 C 54.875 -91.460938 43.546875 -81.359375 39.316406 -63.066406 C 39.316406 -77.808594 27.4375 -89.6875 12.695312 -89.6875 L 9.28125 -89.6875 L 9.28125 0.136719 C 9.28125 14.742188 21.296875 26.753906 35.902344 26.753906 L 39.316406 26.753906 L 39.316406 -28.53125 C 43.546875 -9.828125 54.605469 0.273438 70.710938 0.273438 Z M 39.316406 -46.003906 C 39.316406 -69.074219 48.597656 -84.363281 58.015625 -84.363281 C 67.980469 -84.363281 74.808594 -69.074219 74.808594 -46.003906 C 74.808594 -22.523438 67.980469 -6.824219 58.015625 -6.824219 C 48.597656 -6.824219 39.316406 -22.523438 39.316406 -46.003906 Z M 39.316406 -46.003906 "/></g></g></g><g fill="#3d3d3d" fill-opacity="1"><g transform="translate(369.623965, 194.268253)"><g><path d="M 69.074219 -89.960938 C 51.601562 -89.960938 42.863281 -79.039062 39.316406 -62.792969 L 39.316406 -93.507812 C 39.316406 -110.027344 25.9375 -123.402344 9.28125 -123.402344 L 9.28125 -30.03125 C 9.28125 -13.378906 22.796875 0 39.316406 0 L 39.316406 -49.960938 C 40.40625 -67.570312 46.550781 -81.632812 57.605469 -81.632812 C 64.707031 -81.632812 67.980469 -76.71875 67.980469 -66.34375 L 67.980469 -30.03125 C 67.980469 -13.515625 81.496094 0 98.011719 0 L 98.011719 -58.699219 C 98.011719 -77.535156 87.773438 -89.960938 69.074219 -89.960938 Z M 69.074219 -89.960938 "/></g></g></g><g fill="#3d3d3d" fill-opacity="1"><g transform="translate(467.637216, 194.268253)"><g><path d="M 71.804688 -88.183594 L 71.804688 -89.960938 C 52.011719 -89.960938 42.863281 -78.082031 39.316406 -61.703125 C 39.316406 -76.308594 27.4375 -88.183594 12.832031 -88.183594 L 9.28125 -88.183594 L 9.28125 -26.484375 C 9.28125 -11.875 21.160156 0 35.765625 0 L 39.316406 0 L 39.316406 -42.453125 C 39.316406 -67.164062 46.140625 -88.183594 71.804688 -88.183594 Z M 71.804688 -88.183594 "/></g></g></g><g fill="#3d3d3d" fill-opacity="1"><g transform="translate(532.06935, 194.268253)"><g><path d="M 98.96875 -46.277344 C 98.96875 -73.578125 74.535156 -91.734375 51.875 -91.734375 C 29.347656 -91.734375 4.777344 -73.578125 4.777344 -46.277344 C 4.777344 -18.566406 29.347656 0 51.875 0 C 74.535156 0 98.96875 -18.566406 98.96875 -46.277344 Z M 36.585938 -46.277344 C 36.585938 -76.035156 40.953125 -89.960938 51.875 -89.960938 C 62.792969 -89.960938 67.300781 -76.035156 67.300781 -46.277344 C 67.300781 -16.109375 62.792969 -1.773438 51.875 -1.773438 C 40.953125 -1.773438 36.585938 -16.109375 36.585938 -46.277344 Z M 36.585938 -46.277344 "/></g></g></g><g fill="#3d3d3d" fill-opacity="1"><g transform="translate(627.352448, 194.268253)"><g><path d="M 57.605469 -81.632812 C 64.707031 -81.632812 67.980469 -76.71875 67.980469 -66.34375 L 67.980469 -25.390625 C 67.980469 -11.332031 79.449219 0 93.371094 0 L 98.011719 0 L 98.011719 -58.699219 C 98.011719 -77.535156 87.773438 -89.960938 69.074219 -89.960938 C 51.601562 -89.960938 42.863281 -79.039062 39.316406 -62.792969 C 39.316406 -76.855469 27.984375 -88.183594 13.925781 -88.183594 L 9.28125 -88.183594 L 9.28125 -25.390625 C 9.28125 -11.332031 20.75 0 34.671875 0 L 39.316406 0 L 39.316406 -49.960938 C 40.40625 -67.570312 46.550781 -81.632812 57.605469 -81.632812 Z M 57.605469 -81.632812 "/></g></g></g><g fill="#3d3d3d" fill-opacity="1"><g transform="translate(725.366271, 194.268253)"><g/></g></g><g fill="#947f57" fill-opacity="1"><g transform="translate(429.379638, 90.789637)"><g><path d="M 1.125 -10.046875 L 6.875 -10.046875 L 6.875 -8 L 3.3125 -8 L 3.3125 -6.15625 L 5.90625 -6.15625 L 5.90625 -4.09375 L 3.3125 -4.09375 L 3.3125 -2.0625 L 6.9375 -2.0625 L 6.9375 0 L 1.125 0 Z M 1.125 -10.046875 "/></g></g></g><g fill="#947f57" fill-opacity="1"><g transform="translate(441.574656, 90.789637)"><g><path d="M 1.125 -10.046875 L 4.171875 -10.046875 C 4.710938 -10.046875 5.207031 -9.960938 5.65625 -9.796875 C 6.113281 -9.628906 6.503906 -9.390625 6.828125 -9.078125 C 7.160156 -8.773438 7.421875 -8.414062 7.609375 -8 C 7.796875 -7.582031 7.890625 -7.128906 7.890625 -6.640625 C 7.890625 -6.148438 7.796875 -5.695312 7.609375 -5.28125 C 7.421875 -4.875 7.164062 -4.519531 6.84375 -4.21875 C 6.53125 -3.914062 6.148438 -3.675781 5.703125 -3.5 C 5.253906 -3.332031 4.769531 -3.25 4.25 -3.25 L 3.3125 -3.25 L 3.3125 0 L 1.125 0 Z M 4.171875 -5.3125 C 4.628906 -5.3125 5 -5.425781 5.28125 -5.65625 C 5.5625 -5.894531 5.703125 -6.222656 5.703125 -6.640625 C 5.703125 -7.054688 5.5625 -7.382812 5.28125 -7.625 C 5 -7.875 4.628906 -8 4.171875 -8 L 3.3125 -8 L 3.3125 -5.3125 Z M 4.171875 -5.3125 "/></g></g></g><g fill="#947f57" fill-opacity="1"><g transform="translate(454.564673, 90.789637)"><g><path d="M 1.125 -10.046875 L 3.3125 -10.046875 L 3.3125 -6.125 L 7.234375 -6.125 L 7.234375 -10.046875 L 9.421875 -10.046875 L 9.421875 0 L 7.234375 0 L 7.234375 -4.0625 L 3.3125 -4.0625 L 3.3125 0 L 1.125 0 Z M 1.125 -10.046875 "/></g></g></g><g fill="#947f57" fill-opacity="1"><g transform="translate(469.609682, 90.789637)"><g><path d="M 1.125 -10.046875 L 4.28125 -10.046875 C 4.800781 -10.046875 5.28125 -9.960938 5.71875 -9.796875 C 6.164062 -9.640625 6.546875 -9.414062 6.859375 -9.125 C 7.179688 -8.84375 7.429688 -8.5 7.609375 -8.09375 C 7.796875 -7.695312 7.890625 -7.265625 7.890625 -6.796875 C 7.890625 -6.191406 7.742188 -5.644531 7.453125 -5.15625 C 7.160156 -4.675781 6.757812 -4.300781 6.25 -4.03125 L 8.609375 0 L 6.0625 0 L 4.109375 -3.53125 L 3.3125 -3.53125 L 3.3125 0 L 1.125 0 Z M 4.171875 -5.453125 C 4.640625 -5.453125 5.007812 -5.570312 5.28125 -5.8125 C 5.5625 -6.050781 5.703125 -6.375 5.703125 -6.78125 C 5.703125 -7.1875 5.5625 -7.488281 5.28125 -7.6875 C 5 -7.894531 4.628906 -8 4.171875 -8 L 3.3125 -8 L 3.3125 -5.453125 Z M 4.171875 -5.453125 "/></g></g></g><g fill="#947f57" fill-opacity="1"><g transform="translate(482.944692, 90.789637)"><g><path d="M 5.71875 0.203125 C 4.976562 0.203125 4.289062 0.0703125 3.65625 -0.1875 C 3.03125 -0.457031 2.484375 -0.828125 2.015625 -1.296875 C 1.546875 -1.773438 1.179688 -2.332031 0.921875 -2.96875 C 0.660156 -3.601562 0.53125 -4.289062 0.53125 -5.03125 C 0.53125 -5.769531 0.660156 -6.457031 0.921875 -7.09375 C 1.179688 -7.738281 1.546875 -8.296875 2.015625 -8.765625 C 2.484375 -9.234375 3.03125 -9.597656 3.65625 -9.859375 C 4.289062 -10.128906 4.976562 -10.265625 5.71875 -10.265625 C 6.445312 -10.265625 7.128906 -10.128906 7.765625 -9.859375 C 8.398438 -9.597656 8.945312 -9.234375 9.40625 -8.765625 C 9.875 -8.296875 10.238281 -7.738281 10.5 -7.09375 C 10.769531 -6.457031 10.90625 -5.769531 10.90625 -5.03125 C 10.90625 -4.289062 10.769531 -3.601562 10.5 -2.96875 C 10.238281 -2.332031 9.875 -1.773438 9.40625 -1.296875 C 8.945312 -0.828125 8.398438 -0.457031 7.765625 -0.1875 C 7.128906 0.0703125 6.445312 0.203125 5.71875 0.203125 Z M 5.71875 -1.921875 C 6.132812 -1.921875 6.515625 -2 6.859375 -2.15625 C 7.210938 -2.3125 7.515625 -2.523438 7.765625 -2.796875 C 8.023438 -3.078125 8.226562 -3.40625 8.375 -3.78125 C 8.519531 -4.164062 8.59375 -4.582031 8.59375 -5.03125 C 8.59375 -5.46875 8.519531 -5.875 8.375 -6.25 C 8.226562 -6.632812 8.023438 -6.960938 7.765625 -7.234375 C 7.515625 -7.515625 7.210938 -7.734375 6.859375 -7.890625 C 6.515625 -8.046875 6.132812 -8.125 5.71875 -8.125 C 5.289062 -8.125 4.898438 -8.046875 4.546875 -7.890625 C 4.203125 -7.734375 3.898438 -7.515625 3.640625 -7.234375 C 3.390625 -6.960938 3.191406 -6.632812 3.046875 -6.25 C 2.898438 -5.875 2.828125 -5.46875 2.828125 -5.03125 C 2.828125 -4.582031 2.898438 -4.164062 3.046875 -3.78125 C 3.191406 -3.40625 3.390625 -3.082031 3.640625 -2.8125 C 3.898438 -2.539062 4.203125 -2.320312 4.546875 -2.15625 C 4.898438 -2 5.289062 -1.921875 5.71875 -1.921875 Z M 5.71875 -1.921875 "/></g></g></g><g fill="#947f57" fill-opacity="1"><g transform="translate(498.874707, 90.789637)"><g><path d="M 3.1875 -5.984375 L 3.1875 0 L 1.125 0 L 1.125 -10.234375 L 2.265625 -10.234375 L 7.875 -4.0625 L 7.875 -10.046875 L 9.9375 -10.046875 L 9.9375 0.1875 L 8.8125 0.1875 Z M 3.1875 -5.984375 "/></g></g></g><g fill="#947f57" fill-opacity="1"><g transform="translate(514.444714, 90.789637)"><g/></g></g><g fill="#947f57" fill-opacity="1"><g transform="translate(522.244732, 90.789637)"><g><path d="M 1.125 -10.046875 L 4.28125 -10.046875 C 4.800781 -10.046875 5.28125 -9.960938 5.71875 -9.796875 C 6.164062 -9.640625 6.546875 -9.414062 6.859375 -9.125 C 7.179688 -8.84375 7.429688 -8.5 7.609375 -8.09375 C 7.796875 -7.695312 7.890625 -7.265625 7.890625 -6.796875 C 7.890625 -6.191406 7.742188 -5.644531 7.453125 -5.15625 C 7.160156 -4.675781 6.757812 -4.300781 6.25 -4.03125 L 8.609375 0 L 6.0625 0 L 4.109375 -3.53125 L 3.3125 -3.53125 L 3.3125 0 L 1.125 0 Z M 4.171875 -5.453125 C 4.640625 -5.453125 5.007812 -5.570312 5.28125 -5.8125 C 5.5625 -6.050781 5.703125 -6.375 5.703125 -6.78125 C 5.703125 -7.1875 5.5625 -7.488281 5.28125 -7.6875 C 5 -7.894531 4.628906 -8 4.171875 -8 L 3.3125 -8 L 3.3125 -5.453125 Z M 4.171875 -5.453125 "/></g></g></g><g fill="#947f57" fill-opacity="1"><g transform="translate(535.579742, 90.789637)"><g><path d="M 5.71875 0.203125 C 4.976562 0.203125 4.289062 0.0703125 3.65625 -0.1875 C 3.03125 -0.457031 2.484375 -0.828125 2.015625 -1.296875 C 1.546875 -1.773438 1.179688 -2.332031 0.921875 -2.96875 C 0.660156 -3.601562 0.53125 -4.289062 0.53125 -5.03125 C 0.53125 -5.769531 0.660156 -6.457031 0.921875 -7.09375 C 1.179688 -7.738281 1.546875 -8.296875 2.015625 -8.765625 C 2.484375 -9.234375 3.03125 -9.597656 3.65625 -9.859375 C 4.289062 -10.128906 4.976562 -10.265625 5.71875 -10.265625 C 6.445312 -10.265625 7.128906 -10.128906 7.765625 -9.859375 C 8.398438 -9.597656 8.945312 -9.234375 9.40625 -8.765625 C 9.875 -8.296875 10.238281 -7.738281 10.5 -7.09375 C 10.769531 -6.457031 10.90625 -5.769531 10.90625 -5.03125 C 10.90625 -4.289062 10.769531 -3.601562 10.5 -2.96875 C 10.238281 -2.332031 9.875 -1.773438 9.40625 -1.296875 C 8.945312 -0.828125 8.398438 -0.457031 7.765625 -0.1875 C 7.128906 0.0703125 6.445312 0.203125 5.71875 0.203125 Z M 5.71875 -1.921875 C 6.132812 -1.921875 6.515625 -2 6.859375 -2.15625 C 7.210938 -2.3125 7.515625 -2.523438 7.765625 -2.796875 C 8.023438 -3.078125 8.226562 -3.40625 8.375 -3.78125 C 8.519531 -4.164062 8.59375 -4.582031 8.59375 -5.03125 C 8.59375 -5.46875 8.519531 -5.875 8.375 -6.25 C 8.226562 -6.632812 8.023438 -6.960938 7.765625 -7.234375 C 7.515625 -7.515625 7.210938 -7.734375 6.859375 -7.890625 C 6.515625 -8.046875 6.132812 -8.125 5.71875 -8.125 C 5.289062 -8.125 4.898438 -8.046875 4.546875 -7.890625 C 4.203125 -7.734375 3.898438 -7.515625 3.640625 -7.234375 C 3.390625 -6.960938 3.191406 -6.632812 3.046875 -6.25 C 2.898438 -5.875 2.828125 -5.46875 2.828125 -5.03125 C 2.828125 -4.582031 2.898438 -4.164062 3.046875 -3.78125 C 3.191406 -3.40625 3.390625 -3.082031 3.640625 -2.8125 C 3.898438 -2.539062 4.203125 -2.320312 4.546875 -2.15625 C 4.898438 -2 5.289062 -1.921875 5.71875 -1.921875 Z M 5.71875 -1.921875 "/></g></g></g><g fill="#947f57" fill-opacity="1"><g transform="translate(551.509757, 90.789637)"><g><path d="M 3 -3.59375 L -0.078125 -10.046875 L 2.3125 -10.046875 L 4.15625 -5.984375 L 6.046875 -10.046875 L 8.3125 -10.046875 L 5.1875 -3.625 L 5.1875 0 L 3 0 Z M 3 -3.59375 "/></g></g></g><g fill="#947f57" fill-opacity="1"><g transform="translate(564.244776, 90.789637)"><g><path d="M 4.109375 -10.234375 L 5.5 -10.234375 L 9.46875 0 L 7.15625 0 L 6.546875 -1.6875 L 3.078125 -1.6875 L 2.46875 0 L 0.15625 0 Z M 5.859375 -3.578125 L 4.8125 -6.546875 L 3.75 -3.578125 Z M 5.859375 -3.578125 "/></g></g></g><g fill="#947f57" fill-opacity="1"><g transform="translate(578.359793, 90.789637)"><g><path d="M 1.125 -10.046875 L 3.3125 -10.046875 L 3.3125 -2.0625 L 6.796875 -2.0625 L 6.796875 0 L 1.125 0 Z M 1.125 -10.046875 "/></g></g></g><g fill="#947f57" fill-opacity="1"><g transform="translate(590.104806, 90.789637)"><g/></g></g><g fill="#947f57" fill-opacity="1"><g transform="translate(597.904824, 90.789637)"><g><path d="M 0.453125 -7.171875 L 1.078125 -10.546875 L 2.75 -10.125 L 1.71875 -6.859375 Z M 0.453125 -7.171875 "/></g></g></g><g fill="#947f57" fill-opacity="1"><g transform="translate(605.599843, 90.789637)"><g><path d="M 1.125 -10.046875 L 6.796875 -10.046875 L 6.796875 -8 L 3.3125 -8 L 3.3125 -5.71875 L 5.828125 -5.71875 L 5.828125 -3.65625 L 3.3125 -3.65625 L 3.3125 0 L 1.125 0 Z M 1.125 -10.046875 "/></g></g></g><g fill="#947f57" fill-opacity="1"><g transform="translate(617.344856, 90.789637)"><g><path d="M 1.125 -10.046875 L 3.3125 -10.046875 L 3.3125 0 L 1.125 0 Z M 1.125 -10.046875 "/></g></g></g><g fill="#947f57" fill-opacity="1"><g transform="translate(626.284866, 90.789637)"><g><path d="M 3.21875 -8 L 0.296875 -8 L 0.296875 -10.046875 L 8.34375 -10.046875 L 8.34375 -8 L 5.421875 -8 L 5.421875 0 L 3.21875 0 Z M 3.21875 -8 "/></g></g></g><g fill="#947f57" fill-opacity="1"><g transform="translate(639.424881, 90.789637)"><g><path d="M 3.828125 0.265625 C 3.046875 0.265625 2.34375 0.09375 1.71875 -0.25 C 1.101562 -0.601562 0.601562 -1.109375 0.21875 -1.765625 L 1.75 -3.046875 C 2.269531 -2.117188 2.957031 -1.65625 3.8125 -1.65625 C 4.1875 -1.65625 4.488281 -1.742188 4.71875 -1.921875 C 4.957031 -2.109375 5.078125 -2.351562 5.078125 -2.65625 C 5.078125 -2.9375 4.960938 -3.175781 4.734375 -3.375 C 4.503906 -3.582031 4.09375 -3.816406 3.5 -4.078125 C 2.5625 -4.484375 1.878906 -4.9375 1.453125 -5.4375 C 1.035156 -5.945312 0.828125 -6.554688 0.828125 -7.265625 C 0.828125 -7.703125 0.90625 -8.101562 1.0625 -8.46875 C 1.226562 -8.84375 1.453125 -9.160156 1.734375 -9.421875 C 2.023438 -9.691406 2.367188 -9.898438 2.765625 -10.046875 C 3.171875 -10.191406 3.613281 -10.265625 4.09375 -10.265625 C 5.363281 -10.265625 6.4375 -9.71875 7.3125 -8.625 L 5.859375 -7.3125 C 5.578125 -7.675781 5.296875 -7.945312 5.015625 -8.125 C 4.742188 -8.300781 4.4375 -8.390625 4.09375 -8.390625 C 3.757812 -8.390625 3.492188 -8.304688 3.296875 -8.140625 C 3.109375 -7.972656 3.015625 -7.75 3.015625 -7.46875 C 3.015625 -7.15625 3.144531 -6.898438 3.40625 -6.703125 C 3.664062 -6.503906 4.054688 -6.289062 4.578125 -6.0625 C 5.523438 -5.644531 6.210938 -5.175781 6.640625 -4.65625 C 7.066406 -4.144531 7.28125 -3.535156 7.28125 -2.828125 C 7.28125 -2.367188 7.191406 -1.945312 7.015625 -1.5625 C 6.847656 -1.1875 6.613281 -0.863281 6.3125 -0.59375 C 6.007812 -0.320312 5.644531 -0.113281 5.21875 0.03125 C 4.800781 0.1875 4.335938 0.265625 3.828125 0.265625 Z M 3.828125 0.265625 "/></g></g></g></svg>